<svg xmlns="http://www.w3.org/2000/svg" xmlns:xlink="http://www.w3.org/1999/xlink" viewBox="0 0 558.51 767.23"><defs><style>.cls-1{fill:#7c7663;}.cls-2{fill:#645e50;}.cls-3{fill:#5b5548;}.cls-4{fill:#817866;}.cls-5{fill:#696454;}.cls-6{fill:#7c7363;}.cls-7{fill:#756f5d;}.cls-8{fill:#585347;}.cls-9{fill:#706b5a;}.cls-10{fill:#706a59;}.cls-11{fill:#658833;}.cls-12{fill:#81ad37;}.cls-13{fill:#819f47;}.cls-14{fill:#bdc3d0;}.cls-15,.cls-18,.cls-35,.cls-43{fill:none;}.cls-15{stroke:#fff;stroke-width:2px;}.cls-15,.cls-35,.cls-43,.cls-44,.cls-45{stroke-miterlimit:10;}.cls-16{fill:#d5d6d8;}.cls-17{fill:#858992;}.cls-19{fill:#cdd1d4;}.cls-20{fill:#6b6f78;}.cls-21{fill:#686c75;}.cls-22{fill:#4c5059;}.cls-23{fill:#6a6e77;}.cls-24{fill:url(#linear-gradient);}.cls-25{fill:url(#linear-gradient-2);}.cls-26{fill:#9cb3c2;}.cls-27{fill:#bec1c7;}.cls-28{fill:#c8cbd1;}.cls-29{fill:#fdfffe;}.cls-30{fill:#9bb3c3;}.cls-31{fill:#b1b5b8;}.cls-32{fill:#868a93;}.cls-33{fill:#98afc0;}.cls-34{fill:#93a9b8;}.cls-35,.cls-43,.cls-44,.cls-45{stroke:#000;}.cls-36{fill:#a7aab0;}.cls-37{fill:#696d76;}.cls-38{fill:#565a63;}.cls-39{fill:#a4a5a9;}.cls-40{fill:#9b9fa2;}.cls-41{fill:#ff6258;}.cls-42{fill:#ff6459;}.cls-43{stroke-width:0.25px;}.cls-44{fill:#080007;}.cls-45{fill:#333041;}.cls-46{fill:#c9cbd2;}.cls-47{fill:#840a10;}.cls-48{fill:#b8f6ff;}.cls-49{fill:#a20d06;}.cls-50{fill:#bef6fd;}.cls-51{fill:#d38e5d;}.cls-52{fill:#a3cb04;}.cls-53{fill:#a35a29;}.cls-54{fill:#c87138;}.cls-55{fill:#658103;}.cls-56{fill:#88ab03;}</style><linearGradient id="linear-gradient" x1="325.65" y1="180.24" x2="407.66" y2="180.24" gradientUnits="userSpaceOnUse"><stop offset="0" stop-color="#c9ccd2"/><stop offset="1" stop-color="#d0d0d7"/></linearGradient><linearGradient id="linear-gradient-2" x1="325.65" y1="121.05" x2="407.64" y2="121.05" xlink:href="#linear-gradient"/></defs><g id="Layer_6" data-name="Layer 6"><polygon class="cls-1" points="548.77 334 514.91 453.17 473.9 455.45 488.62 368.81 548.77 334"/><polygon class="cls-2" points="39.69 386.4 129.91 576.06 131.99 439.61 39.69 386.4"/><polygon class="cls-3" points="9.74 264.96 70.11 403.12 99.58 316.95 9.74 264.96"/><polygon class="cls-4" points="189.42 576.06 220.68 767.23 249.31 749.18 279.25 524.49 189.42 576.06"/><polygon class="cls-5" points="279.25 524.49 249.31 749.18 278.2 765.86 309.2 541.96 279.25 524.49"/><polygon class="cls-6" points="278.2 765.86 305.16 743.26 339.15 524.49 309.2 541.96 278.2 765.86"/><polygon class="cls-7" points="339.15 524.49 306.19 736.61 339.15 731.89 369.09 541.96 339.15 524.49"/><polygon class="cls-7" points="69.63 507.02 159.44 697.33 220.68 767.23 189.42 576.06 69.63 507.02"/><polygon class="cls-8" points="199.68 743.26 159.44 559.02 69.63 507.02 162.18 714.88 199.68 743.26"/><polygon class="cls-9" points="339.15 731.89 348.99 714.63 364.35 709.15 399.04 524.49 369.09 541.96 339.15 731.89"/><polygon class="cls-1" points="364.35 709.15 374.94 714.18 428.99 541.96 399.04 524.49 364.35 709.15"/><polygon class="cls-10" points="518.82 489.55 408.48 677.05 380.95 695.04 428.99 541.96 518.82 489.55"/><polygon class="cls-5" points="518.82 420.51 508.31 449.19 488.88 437.97 518.82 420.51"/><polygon class="cls-1" points="488.88 195.91 481.44 260.96 428.87 230.57 488.88 195.91"/><polygon class="cls-11" points="31.03 174.39 31.03 214.03 0 228.69 0 264.02 124.11 336.42 31.03 353.66 31.03 389.86 155.14 461.4 62.06 479.5 62.06 514.84 186.17 586.37 279.25 532.94 310.28 551.03 341.31 532.94 372.34 551.03 403.37 532.94 434.4 551.03 527.48 496.74 527.48 461.4 496.45 443.29 527.48 425.2 527.48 389.86 496.19 371.63 558.51 335.56 558.51 300.22 434.27 228.39 496.45 192.49 496.45 156.29 31.03 174.39"/><polygon class="cls-12" points="186.17 550.78 62.06 479.5 155.14 425.38 31.03 353.72 124.11 299.98 0 228.32 62.06 192.49 31.03 174.58 217.2 67.09 248.23 85.01 279.25 67.09 341.31 102.92 372.34 85.61 496.45 156.66 403.37 210.59 558.51 299.98 465.42 353.72 527.48 389.86 465.42 425.38 527.48 461.21 434.4 514.95 403.55 496.96 372.34 514.95 341.31 496.74 310.28 514.95 279.25 497.03 186.17 550.78"/><polygon class="cls-13" points="186.17 551.03 186.17 586.37 279.25 532.94 279.25 496.74 186.17 551.03"/><polygon class="cls-13" points="310.28 514.84 310.28 551.03 341.31 532.94 341.31 496.74 310.28 514.84"/><polygon class="cls-13" points="372.34 551.03 372.34 514.84 403.37 496.74 403.37 532.94 372.34 551.03"/><polygon class="cls-13" points="434.4 514.84 434.4 551.03 527.48 496.74 527.48 461.4 434.4 514.84"/><polygon class="cls-13" points="527.48 389.86 465.42 425.2 496.45 443.29 527.48 425.2 527.48 389.86"/><polygon class="cls-13" points="465.42 353.66 496.19 371.63 558.51 335.56 558.51 300.22 465.42 353.66"/><polygon class="cls-13" points="403.37 210.59 434.27 228.39 496.45 192.49 496.45 156.29 403.37 210.59"/><polygon class="cls-14" points="94.81 175.25 124.11 192.49 62.06 227.82 186.17 300.22 93.08 353.66 217.2 425.2 124.11 479.5 186.17 514.84 279.25 461.4 310.28 479.5 341.31 461.4 372.34 479.5 403.37 461.4 434.4 479.5 465.42 461.4 403.37 425.2 465.42 389.86 403.37 353.66 496.45 300.22 341.31 210.59 434.4 156.29 372.34 120.95 341.31 139.05 279.25 102.85 248.23 120.95 217.2 102.85 94.81 175.25"/><line class="cls-15" x1="273.75" y1="297.01" x2="319.64" y2="323.5"/><line class="cls-15" x1="267.12" y1="300.88" x2="313.01" y2="327.38"/><line class="cls-15" x1="260.48" y1="304.76" x2="306.37" y2="331.26"/><line class="cls-15" x1="253.85" y1="308.64" x2="299.74" y2="335.13"/><line class="cls-15" x1="247.21" y1="312.51" x2="293.1" y2="339.01"/><line class="cls-15" x1="228.31" y1="166.49" x2="274.2" y2="192.99"/><line class="cls-15" x1="221.68" y1="170.37" x2="267.57" y2="196.87"/><line class="cls-15" x1="215.04" y1="174.25" x2="260.93" y2="200.74"/><line class="cls-15" x1="208.4" y1="178.12" x2="254.3" y2="204.62"/><line class="cls-15" x1="201.77" y1="182" x2="247.66" y2="208.5"/><line class="cls-15" x1="277.13" y1="364.71" x2="234.09" y2="389.94"/><line class="cls-15" x1="285.16" y1="369.53" x2="242.12" y2="394.76"/><line class="cls-15" x1="293.19" y1="374.35" x2="250.15" y2="399.58"/><line class="cls-15" x1="301.23" y1="379.17" x2="258.18" y2="404.41"/><line class="cls-15" x1="309.26" y1="384" x2="266.22" y2="409.23"/><line class="cls-15" x1="317.29" y1="388.82" x2="274.25" y2="414.05"/><path class="cls-16" d="M528.85,183.61c-19,11-50.21,11-69.26,0L435.78,169.9c-19-11-19-29,0-40l24.2-14c19.06-11,50.21-11,69.23.09l23.52,13.67c19,11.05,19,29.11,0,40.13Z" transform="translate(-191.64)"/><polygon class="cls-17" points="302.67 65.03 246.4 32.83 302.67 0 358.95 32.51 302.67 65.03"/><polygon class="cls-18" points="358.95 37.52 358.79 37.43 358.79 37.61 358.95 37.52"/><polygon class="cls-19" points="358.79 148.73 358.79 37.61 302.83 69.94 302.83 181.17 302.83 69.94 302.67 70.03 246.4 37.83 250.73 35.3 246.4 32.83 246.66 32.67 246.24 32.67 246.24 148.97 246.66 148.97 246.4 149.13 302.67 181.33 358.68 148.97 358.79 148.97 358.79 148.91 358.95 148.82 358.79 148.73"/><polygon class="cls-20" points="302.67 70.03 302.83 69.94 302.83 64.94 302.67 65.03 246.4 32.83 246.4 37.83 302.67 70.03"/><polygon class="cls-21" points="358.68 32.67 354.62 35.02 302.83 64.94 302.83 69.94 358.79 37.61 358.79 37.43 358.79 32.67 358.68 32.67"/><polygon class="cls-22" points="349.28 33.77 351.44 32.51 302.67 4.33 253.9 32.78 256.06 34.02 302.67 6.84 349.28 33.77"/><polygon class="cls-18" points="349.28 33.77 302.67 6.84 256.06 34.02 302.67 60.69 349.28 33.77"/><polygon class="cls-23" points="334.59 64.89 339.82 61.87 339.82 66.7 334.59 69.72 334.59 64.89"/><polygon class="cls-23" points="334.59 99.88 339.82 96.86 339.82 101.69 334.59 104.71 334.59 99.88"/><polygon class="cls-23" points="320.39 73.09 325.62 70.07 325.62 74.9 320.39 77.92 320.39 73.09"/><polygon class="cls-23" points="313.29 77.19 318.52 74.17 318.52 79.01 313.29 82.03 313.29 77.19"/><polygon class="cls-23" points="313.29 84.19 318.52 81.17 318.52 86.01 313.29 89.03 313.29 84.19"/><polygon class="cls-23" points="334.59 85.88 339.82 82.86 339.82 87.69 334.59 90.71 334.59 85.88"/><polygon class="cls-23" points="334.59 92.88 339.82 89.86 339.82 94.69 334.59 97.71 334.59 92.88"/><polygon class="cls-23" points="313.29 91.19 318.52 88.17 318.52 93 313.29 96.02 313.29 91.19"/><polygon class="cls-23" points="334.59 71.88 339.82 68.86 339.82 73.7 334.59 76.72 334.59 71.88"/><polygon class="cls-23" points="334.59 78.88 339.82 75.86 339.82 80.69 334.59 83.71 334.59 78.88"/><polygon class="cls-23" points="327.49 68.99 332.72 65.97 332.72 70.8 327.49 73.82 327.49 68.99"/><polygon class="cls-23" points="313.29 147.18 318.52 144.16 318.52 148.99 313.29 152.01 313.29 147.18"/><polygon class="cls-23" points="320.39 143.07 325.62 140.06 325.62 144.89 320.39 147.91 320.39 143.07"/><polygon class="cls-23" points="313.29 140.18 318.52 137.16 318.52 141.99 313.29 145.01 313.29 140.18"/><polygon class="cls-23" points="327.49 138.97 332.72 135.95 332.72 140.78 327.49 143.8 327.49 138.97"/><polygon class="cls-23" points="334.59 134.87 339.82 131.85 339.82 136.68 334.59 139.7 334.59 134.87"/><polygon class="cls-23" points="313.29 98.19 318.52 95.17 318.52 100 313.29 103.02 313.29 98.19"/><polygon class="cls-23" points="313.29 105.19 318.52 102.17 318.52 107 313.29 110.02 313.29 105.19"/><polygon class="cls-23" points="313.29 112.19 318.52 109.17 318.52 114 313.29 117.02 313.29 112.19"/><polygon class="cls-23" points="313.29 133.18 318.52 130.16 318.52 134.99 313.29 138.01 313.29 133.18"/><polygon class="cls-23" points="313.29 119.18 318.52 116.17 318.52 121 313.29 124.02 313.29 119.18"/><polygon class="cls-23" points="313.29 126.18 318.52 123.16 318.52 128 313.29 131.01 313.29 126.18"/><polygon class="cls-23" points="320.39 80.09 325.62 77.07 325.62 81.9 320.39 84.92 320.39 80.09"/><polygon class="cls-23" points="320.39 87.09 325.62 84.07 325.62 88.9 320.39 91.92 320.39 87.09"/><polygon class="cls-23" points="334.59 106.88 339.82 103.86 339.82 108.69 334.59 111.71 334.59 106.88"/><polygon class="cls-23" points="341.7 130.76 346.92 127.75 346.92 132.58 341.7 135.6 341.7 130.76"/><polygon class="cls-23" points="327.49 96.98 332.72 93.96 332.72 98.79 327.49 101.81 327.49 96.98"/><polygon class="cls-23" points="327.49 75.99 332.72 72.97 332.72 77.8 327.49 80.82 327.49 75.99"/><polygon class="cls-23" points="327.49 89.98 332.72 86.96 332.72 91.8 327.49 94.81 327.49 89.98"/><polygon class="cls-23" points="327.49 124.97 332.72 121.96 332.72 126.79 327.49 129.81 327.49 124.97"/><polygon class="cls-23" points="348.8 49.68 354.02 46.66 354.02 51.49 348.8 54.51 348.8 49.68"/><polygon class="cls-23" points="327.49 110.98 332.72 107.96 332.72 112.79 327.49 115.81 327.49 110.98"/><polygon class="cls-23" points="327.49 117.98 332.72 114.96 332.72 119.79 327.49 122.81 327.49 117.98"/><polygon class="cls-23" points="327.49 103.98 332.72 100.96 332.72 105.79 327.49 108.81 327.49 103.98"/><polygon class="cls-23" points="327.49 82.98 332.72 79.97 332.72 84.8 327.49 87.82 327.49 82.98"/><polygon class="cls-23" points="320.39 136.08 325.62 133.06 325.62 137.89 320.39 140.91 320.39 136.08"/><polygon class="cls-23" points="320.39 94.09 325.62 91.07 325.62 95.9 320.39 98.92 320.39 94.09"/><polygon class="cls-23" points="334.59 120.87 339.82 117.85 339.82 122.68 334.59 125.7 334.59 120.87"/><polygon class="cls-23" points="320.39 129.08 325.62 126.06 325.62 130.89 320.39 133.91 320.39 129.08"/><polygon class="cls-23" points="334.59 113.87 339.82 110.85 339.82 115.69 334.59 118.7 334.59 113.87"/><polygon class="cls-23" points="327.49 131.97 332.72 128.95 332.72 133.79 327.49 136.81 327.49 131.97"/><polygon class="cls-23" points="320.39 101.08 325.62 98.07 325.62 102.9 320.39 105.92 320.39 101.08"/><polygon class="cls-23" points="320.39 108.08 325.62 105.06 325.62 109.9 320.39 112.92 320.39 108.08"/><polygon class="cls-23" points="320.39 115.08 325.62 112.06 325.62 116.89 320.39 119.91 320.39 115.08"/><polygon class="cls-23" points="320.39 122.08 325.62 119.06 325.62 123.89 320.39 126.91 320.39 122.08"/><polygon class="cls-23" points="334.59 127.87 339.82 124.85 339.82 129.68 334.59 132.7 334.59 127.87"/><polygon class="cls-23" points="320.39 150.07 325.62 147.05 325.62 151.88 320.39 154.91 320.39 150.07"/><polygon class="cls-23" points="327.49 145.97 332.72 142.95 332.72 147.78 327.49 150.8 327.49 145.97"/><polygon class="cls-23" points="348.8 126.66 354.02 123.64 354.02 128.47 348.8 131.49 348.8 126.66"/><polygon class="cls-23" points="348.8 133.66 354.02 130.64 354.02 135.47 348.8 138.49 348.8 133.66"/><polygon class="cls-23" points="341.7 137.76 346.92 134.75 346.92 139.58 341.7 142.6 341.7 137.76"/><polygon class="cls-23" points="334.59 141.87 339.82 138.85 339.82 143.68 334.59 146.7 334.59 141.87"/><polygon class="cls-23" points="313.29 154.18 318.52 151.16 318.52 155.99 313.29 159.01 313.29 154.18"/><polygon class="cls-23" points="306.19 130.29 311.41 127.27 311.41 132.1 306.19 135.12 306.19 130.29"/><polygon class="cls-23" points="306.19 137.28 311.41 134.26 311.41 139.1 306.19 142.12 306.19 137.28"/><polygon class="cls-23" points="306.19 151.28 311.41 148.26 311.41 153.09 306.19 156.11 306.19 151.28"/><polygon class="cls-23" points="341.7 123.77 346.92 120.75 346.92 125.58 341.7 128.6 341.7 123.77"/><polygon class="cls-23" points="306.19 144.28 311.41 141.26 311.41 146.09 306.19 149.11 306.19 144.28"/><polygon class="cls-23" points="348.8 77.67 354.02 74.66 354.02 79.49 348.8 82.51 348.8 77.67"/><polygon class="cls-23" points="348.8 63.68 354.02 60.66 354.02 65.49 348.8 68.51 348.8 63.68"/><polygon class="cls-23" points="348.8 70.68 354.02 67.66 354.02 72.49 348.8 75.51 348.8 70.68"/><polygon class="cls-23" points="348.8 119.66 354.02 116.64 354.02 121.48 348.8 124.5 348.8 119.66"/><polygon class="cls-23" points="348.8 56.68 354.02 53.66 354.02 58.49 348.8 61.51 348.8 56.68"/><polygon class="cls-23" points="348.8 105.67 354.02 102.65 354.02 107.48 348.8 110.5 348.8 105.67"/><polygon class="cls-23" points="348.8 84.67 354.02 81.65 354.02 86.48 348.8 89.5 348.8 84.67"/><polygon class="cls-23" points="348.8 112.67 354.02 109.65 354.02 114.48 348.8 117.5 348.8 112.67"/><polygon class="cls-23" points="348.8 98.67 354.02 95.65 354.02 100.48 348.8 103.5 348.8 98.67"/><polygon class="cls-23" points="348.8 91.67 354.02 88.65 354.02 93.48 348.8 96.5 348.8 91.67"/><polygon class="cls-23" points="306.19 158.28 311.41 155.26 311.41 160.09 306.19 163.11 306.19 158.28"/><polygon class="cls-23" points="341.7 67.78 346.92 64.76 346.92 69.59 341.7 72.61 341.7 67.78"/><polygon class="cls-23" points="341.7 74.78 346.92 71.76 346.92 76.59 341.7 79.61 341.7 74.78"/><polygon class="cls-23" points="341.7 60.78 346.92 57.76 346.92 62.59 341.7 65.61 341.7 60.78"/><polygon class="cls-23" points="341.7 81.78 346.92 78.76 346.92 83.59 341.7 86.61 341.7 81.78"/><polygon class="cls-23" points="341.7 53.78 346.92 50.77 346.92 55.6 341.7 58.62 341.7 53.78"/><polygon class="cls-23" points="341.7 109.77 346.92 106.75 346.92 111.58 341.7 114.6 341.7 109.77"/><polygon class="cls-23" points="334.59 57.89 339.82 54.87 339.82 59.7 334.59 62.72 334.59 57.89"/><polygon class="cls-23" points="341.7 116.77 346.92 113.75 346.92 118.58 341.7 121.6 341.7 116.77"/><polygon class="cls-23" points="341.7 88.78 346.92 85.76 346.92 90.59 341.7 93.61 341.7 88.78"/><polygon class="cls-23" points="341.7 102.77 346.92 99.75 346.92 104.58 341.7 107.6 341.7 102.77"/><polygon class="cls-23" points="341.7 95.77 346.92 92.75 346.92 97.59 341.7 100.61 341.7 95.77"/><polygon class="cls-23" points="306.19 74.3 311.41 71.28 311.41 76.11 306.19 79.13 306.19 74.3"/><polygon class="cls-23" points="306.19 88.3 311.41 85.28 311.41 90.11 306.19 93.13 306.19 88.3"/><polygon class="cls-23" points="306.19 102.29 311.41 99.27 311.41 104.11 306.19 107.12 306.19 102.29"/><polygon class="cls-23" points="306.19 95.29 311.41 92.28 311.41 97.11 306.19 100.13 306.19 95.29"/><polygon class="cls-23" points="306.19 116.29 311.41 113.27 311.41 118.1 306.19 121.12 306.19 116.29"/><polygon class="cls-23" points="327.49 61.99 332.72 58.97 332.72 63.8 327.49 66.82 327.49 61.99"/><polygon class="cls-23" points="306.19 109.29 311.41 106.27 311.41 111.1 306.19 114.12 306.19 109.29"/><polygon class="cls-23" points="320.39 66.09 325.62 63.07 325.62 67.91 320.39 70.92 320.39 66.09"/><polygon class="cls-23" points="313.29 70.2 318.52 67.18 318.52 72.01 313.29 75.03 313.29 70.2"/><polygon class="cls-23" points="306.19 81.3 311.41 78.28 311.41 83.11 306.19 86.13 306.19 81.3"/><polygon class="cls-23" points="306.19 123.29 311.41 120.27 311.41 125.1 306.19 128.12 306.19 123.29"/><polygon class="cls-20" points="272.49 69.24 272.49 64.47 278.16 67.72 278.16 72.48 272.49 69.24"/><polygon class="cls-20" points="257.39 67.53 257.39 62.76 263.06 66.01 263.06 70.77 257.39 67.53"/><polygon class="cls-20" points="264.94 64.92 264.94 60.16 270.61 63.4 270.61 68.17 264.94 64.92"/><polygon class="cls-20" points="257.39 60.6 257.39 55.84 263.06 59.08 263.06 63.85 257.39 60.6"/><polygon class="cls-20" points="280.03 87.41 280.03 82.65 285.7 85.89 285.7 90.66 280.03 87.41"/><polygon class="cls-20" points="280.03 101.26 280.03 96.5 285.7 99.74 285.7 104.51 280.03 101.26"/><polygon class="cls-20" points="280.03 73.56 280.03 68.79 285.7 72.04 285.7 76.8 280.03 73.56"/><polygon class="cls-20" points="280.03 94.34 280.03 89.57 285.7 92.82 285.7 97.58 280.03 94.34"/><polygon class="cls-20" points="280.03 80.48 280.03 75.72 285.7 78.97 285.7 83.73 280.03 80.48"/><polygon class="cls-20" points="257.39 74.45 257.39 69.69 263.06 72.93 263.06 77.7 257.39 74.45"/><polygon class="cls-20" points="257.39 88.31 257.39 83.54 263.06 86.79 263.06 91.55 257.39 88.31"/><polygon class="cls-20" points="264.94 134.18 264.94 129.42 270.61 132.66 270.61 137.43 264.94 134.18"/><polygon class="cls-20" points="257.39 129.86 257.39 125.1 263.06 128.34 263.06 133.11 257.39 129.86"/><polygon class="cls-20" points="272.49 138.5 272.49 133.74 278.16 136.98 278.16 141.75 272.49 138.5"/><polygon class="cls-20" points="257.39 122.94 257.39 118.17 263.06 121.42 263.06 126.18 257.39 122.94"/><polygon class="cls-20" points="280.03 142.82 280.03 138.06 285.7 141.3 285.7 146.07 280.03 142.82"/><polygon class="cls-20" points="257.39 102.16 257.39 97.39 263.06 100.64 263.06 105.4 257.39 102.16"/><polygon class="cls-20" points="280.03 108.19 280.03 103.42 285.7 106.67 285.7 111.44 280.03 108.19"/><polygon class="cls-20" points="257.39 95.23 257.39 90.47 263.06 93.71 263.06 98.48 257.39 95.23"/><polygon class="cls-20" points="257.39 81.38 257.39 76.61 263.06 79.86 263.06 84.63 257.39 81.38"/><polygon class="cls-20" points="257.39 109.08 257.39 104.32 263.06 107.56 263.06 112.33 257.39 109.08"/><polygon class="cls-20" points="257.39 116.01 257.39 111.25 263.06 114.49 263.06 119.26 257.39 116.01"/><polygon class="cls-20" points="264.94 85.7 264.94 80.93 270.61 84.18 270.61 88.94 264.94 85.7"/><polygon class="cls-20" points="272.49 90.02 272.49 85.25 278.16 88.5 278.16 93.26 272.49 90.02"/><polygon class="cls-20" points="264.94 78.77 264.94 74.01 270.61 77.25 270.61 82.02 264.94 78.77"/><polygon class="cls-20" points="264.94 71.85 264.94 67.08 270.61 70.33 270.61 75.09 264.94 71.85"/><polygon class="cls-20" points="272.49 96.94 272.49 92.18 278.16 95.42 278.16 100.19 272.49 96.94"/><polygon class="cls-20" points="272.49 76.17 272.49 71.4 278.16 74.65 278.16 79.41 272.49 76.17"/><polygon class="cls-20" points="272.49 83.09 272.49 78.33 278.16 81.57 278.16 86.34 272.49 83.09"/><polygon class="cls-20" points="295.13 75.27 295.13 70.51 300.8 73.75 300.8 78.52 295.13 75.27"/><polygon class="cls-20" points="272.49 103.87 272.49 99.11 278.16 102.35 278.16 107.12 272.49 103.87"/><polygon class="cls-20" points="272.49 124.65 272.49 119.88 278.16 123.13 278.16 127.89 272.49 124.65"/><polygon class="cls-20" points="272.49 110.8 272.49 106.03 278.16 109.28 278.16 114.04 272.49 110.8"/><polygon class="cls-20" points="272.49 117.72 272.49 112.96 278.16 116.2 278.16 120.97 272.49 117.72"/><polygon class="cls-20" points="264.94 113.4 264.94 108.64 270.61 111.88 270.61 116.65 264.94 113.4"/><polygon class="cls-20" points="272.49 131.57 272.49 126.81 278.16 130.06 278.16 134.82 272.49 131.57"/><polygon class="cls-20" points="287.58 147.14 287.58 142.37 293.25 145.62 293.25 150.38 287.58 147.14"/><polygon class="cls-20" points="280.03 135.89 280.03 131.13 285.7 134.38 285.7 139.14 280.03 135.89"/><polygon class="cls-20" points="280.03 128.97 280.03 124.2 285.7 127.45 285.7 132.21 280.03 128.97"/><polygon class="cls-20" points="280.03 122.04 280.03 117.28 285.7 120.52 285.7 125.29 280.03 122.04"/><polygon class="cls-20" points="264.94 127.26 264.94 122.49 270.61 125.74 270.61 130.5 264.94 127.26"/><polygon class="cls-20" points="264.94 99.55 264.94 94.79 270.61 98.03 270.61 102.8 264.94 99.55"/><polygon class="cls-20" points="264.94 120.33 264.94 115.56 270.61 118.81 270.61 123.58 264.94 120.33"/><polygon class="cls-20" points="264.94 92.63 264.94 87.86 270.61 91.11 270.61 95.87 264.94 92.63"/><polygon class="cls-20" points="280.03 115.11 280.03 110.35 285.7 113.6 285.7 118.36 280.03 115.11"/><polygon class="cls-20" points="264.94 106.48 264.94 101.71 270.61 104.96 270.61 109.72 264.94 106.48"/><polygon class="cls-20" points="257.39 53.67 257.39 48.91 263.06 52.16 263.06 56.92 257.39 53.67"/><polygon class="cls-20" points="280.03 149.75 280.03 144.98 285.7 148.23 285.7 152.99 280.03 149.75"/><polygon class="cls-20" points="272.49 145.43 272.49 140.66 278.16 143.91 278.16 148.67 272.49 145.43"/><polygon class="cls-20" points="295.13 144.53 295.13 139.77 300.8 143.01 300.8 147.78 295.13 144.53"/><polygon class="cls-20" points="295.13 151.46 295.13 146.69 300.8 149.94 300.8 154.7 295.13 151.46"/><polygon class="cls-20" points="295.13 158.38 295.13 153.62 300.8 156.87 300.8 161.63 295.13 158.38"/><polygon class="cls-20" points="287.58 154.07 287.58 149.3 293.25 152.55 293.25 157.31 287.58 154.07"/><polygon class="cls-20" points="249.84 125.54 249.84 120.78 255.51 124.02 255.51 128.79 249.84 125.54"/><polygon class="cls-20" points="249.84 118.62 249.84 113.85 255.51 117.1 255.51 121.86 249.84 118.62"/><polygon class="cls-20" points="249.84 111.69 249.84 106.93 255.51 110.17 255.51 114.94 249.84 111.69"/><polygon class="cls-20" points="249.84 132.47 249.84 127.7 255.51 130.95 255.51 135.72 249.84 132.47"/><polygon class="cls-20" points="264.94 141.11 264.94 136.34 270.61 139.59 270.61 144.35 264.94 141.11"/><polygon class="cls-20" points="257.39 136.79 257.39 132.02 263.06 135.27 263.06 140.03 257.39 136.79"/><polygon class="cls-20" points="295.13 89.12 295.13 84.36 300.8 87.6 300.8 92.37 295.13 89.12"/><polygon class="cls-20" points="295.13 96.05 295.13 91.28 300.8 94.53 300.8 99.3 295.13 96.05"/><polygon class="cls-20" points="295.13 82.2 295.13 77.43 300.8 80.68 300.8 85.44 295.13 82.2"/><polygon class="cls-20" points="295.13 102.97 295.13 98.21 300.8 101.46 300.8 106.22 295.13 102.97"/><polygon class="cls-20" points="295.13 109.9 295.13 105.14 300.8 108.38 300.8 113.15 295.13 109.9"/><polygon class="cls-20" points="295.13 130.68 295.13 125.92 300.8 129.16 300.8 133.93 295.13 130.68"/><polygon class="cls-20" points="295.13 137.61 295.13 132.84 300.8 136.09 300.8 140.85 295.13 137.61"/><polygon class="cls-20" points="295.13 123.75 295.13 118.99 300.8 122.23 300.8 127 295.13 123.75"/><polygon class="cls-20" points="295.13 116.83 295.13 112.06 300.8 115.31 300.8 120.07 295.13 116.83"/><polygon class="cls-20" points="287.58 112.51 287.58 107.74 293.25 110.99 293.25 115.75 287.58 112.51"/><polygon class="cls-20" points="280.03 66.63 280.03 61.87 285.7 65.11 285.7 69.88 280.03 66.63"/><polygon class="cls-20" points="287.58 91.73 287.58 86.97 293.25 90.21 293.25 94.98 287.58 91.73"/><polygon class="cls-20" points="287.58 70.95 287.58 66.19 293.25 69.43 293.25 74.2 287.58 70.95"/><polygon class="cls-20" points="287.58 98.66 287.58 93.89 293.25 97.14 293.25 101.9 287.58 98.66"/><polygon class="cls-20" points="287.58 77.88 287.58 73.11 293.25 76.36 293.25 81.12 287.58 77.88"/><polygon class="cls-20" points="287.58 84.8 287.58 80.04 293.25 83.28 293.25 88.05 287.58 84.8"/><polygon class="cls-20" points="287.58 126.36 287.58 121.6 293.25 124.84 293.25 129.61 287.58 126.36"/><polygon class="cls-20" points="287.58 105.58 287.58 100.82 293.25 104.06 293.25 108.83 287.58 105.58"/><polygon class="cls-20" points="287.58 133.29 287.58 128.52 293.25 131.77 293.25 136.53 287.58 133.29"/><polygon class="cls-20" points="287.58 119.44 287.58 114.67 293.25 117.92 293.25 122.68 287.58 119.44"/><polygon class="cls-20" points="287.58 140.21 287.58 135.45 293.25 138.69 293.25 143.46 287.58 140.21"/><polygon class="cls-20" points="249.84 56.28 249.84 51.52 255.51 54.76 255.51 59.53 249.84 56.28"/><polygon class="cls-20" points="249.84 83.99 249.84 79.22 255.51 82.47 255.51 87.23 249.84 83.99"/><polygon class="cls-20" points="272.49 62.31 272.49 57.55 278.16 60.79 278.16 65.56 272.49 62.31"/><polygon class="cls-20" points="249.84 97.84 249.84 93.07 255.51 96.32 255.51 101.08 249.84 97.84"/><polygon class="cls-20" points="249.84 70.13 249.84 65.37 255.51 68.61 255.51 73.38 249.84 70.13"/><polygon class="cls-20" points="249.84 90.91 249.84 86.15 255.51 89.39 255.51 94.16 249.84 90.91"/><polygon class="cls-20" points="249.84 77.06 249.84 72.3 255.51 75.54 255.51 80.31 249.84 77.06"/><polygon class="cls-20" points="249.84 49.36 249.84 44.59 255.51 47.84 255.51 52.6 249.84 49.36"/><polygon class="cls-20" points="264.94 57.99 264.94 53.23 270.61 56.48 270.61 61.24 264.94 57.99"/><polygon class="cls-20" points="249.84 63.21 249.84 58.44 255.51 61.69 255.51 66.45 249.84 63.21"/><polygon class="cls-20" points="249.84 104.77 249.84 100 255.51 103.25 255.51 108.01 249.84 104.77"/><path class="cls-16" d="M401.28,262.8c-19,11-50.21,11-69.27,0l-26.1-15.07c-19.05-11-19.05-29,0-40l26.51-15.31c19.05-11,50.2-10.95,69.22.1l25.82,15c19,11,19,29.11,0,40.13Z" transform="translate(-191.64)"/><path class="cls-24" d="M407.64,110c-.31,5.49-4.08,10.92-11.33,15.07l-2,1.16c-15.11,8.64-39.86,8.67-55,.06L337,125c-7.55-4.3-11.34-10-11.37-15.66h0V227.74h0c0,5.69,3.82,11.36,11.37,15.66l2.27,1.29c15.13,8.61,39.88,8.58,55-.06l2-1.16C404.19,239,408,232.94,407.64,227Z" transform="translate(-191.64)"/><path class="cls-25" d="M325.65,109.35c0,5.69,3.82,11.36,11.37,15.66l2.27,1.29c15.13,8.61,39.88,8.58,55-.06l2-1.16c7.25-4.15,11-9.58,11.33-15.07v-.66" transform="translate(-191.64)"/><path class="cls-26" d="M344.39,153.39a39.75,39.75,0,0,1-4.14-2v-4.95a45.06,45.06,0,0,0,4.14,1.89Z" transform="translate(-191.64)"/><path class="cls-26" d="M350.43,155.46q-2.15-.6-4.14-1.32v-5.09c1.33.46,2.72.89,4.14,1.26Z" transform="translate(-191.64)"/><path class="cls-26" d="M356.47,156.76c-1.4-.23-2.79-.5-4.14-.82v-5.16c1.36.31,2.74.57,4.14.79Z" transform="translate(-191.64)"/><path class="cls-26" d="M362.51,157.45c-1.38-.1-2.77-.23-4.14-.41v-5.2c1.37.18,2.76.31,4.14.4Z" transform="translate(-191.64)"/><path class="cls-26" d="M344.39,167.61a39.75,39.75,0,0,1-4.14-2v-5c1.3.68,2.69,1.31,4.14,1.9Z" transform="translate(-191.64)"/><path class="cls-26" d="M344.39,181.83a39.75,39.75,0,0,1-4.14-2v-5c1.3.68,2.69,1.31,4.14,1.9Z" transform="translate(-191.64)"/><path class="cls-26" d="M344.39,160.5a38.8,38.8,0,0,1-4.14-2v-4.95c1.3.68,2.69,1.31,4.14,1.9Z" transform="translate(-191.64)"/><path class="cls-26" d="M344.39,188.94a39.75,39.75,0,0,1-4.14-2V182c1.3.68,2.69,1.31,4.14,1.9Z" transform="translate(-191.64)"/><path class="cls-26" d="M344.39,196.05a38.8,38.8,0,0,1-4.14-2v-5a45.09,45.09,0,0,0,4.14,1.9Z" transform="translate(-191.64)"/><path class="cls-26" d="M344.39,174.72a38.8,38.8,0,0,1-4.14-2v-4.95c1.3.68,2.69,1.31,4.14,1.9Z" transform="translate(-191.64)"/><path class="cls-26" d="M367,157.59c-.85,0-1.7,0-2.54,0v-5.21c.84,0,1.69,0,2.54,0h1.6v5.21Z" transform="translate(-191.64)"/><path class="cls-26" d="M382.53,179c1.4-.34,2.79-.73,4.14-1.17V183c-1.35.45-2.74.86-4.14,1.22Z" transform="translate(-191.64)"/><path class="cls-26" d="M370.45,152.3c1.38-.07,2.77-.18,4.14-.33v5.2c-1.37.15-2.76.27-4.14.34Z" transform="translate(-191.64)"/><path class="cls-26" d="M382.53,200.36c1.4-.34,2.79-.73,4.14-1.17v5.11c-1.35.45-2.74.86-4.14,1.22Z" transform="translate(-191.64)"/><path class="cls-26" d="M382.53,171.92c1.4-.34,2.79-.73,4.14-1.17v5.11c-1.35.45-2.74.86-4.14,1.22Z" transform="translate(-191.64)"/><path class="cls-26" d="M382.53,193.25c1.4-.34,2.79-.73,4.14-1.17v5.11c-1.35.45-2.73.86-4.14,1.22Z" transform="translate(-191.64)"/><path class="cls-26" d="M382.53,186.14c1.4-.34,2.79-.73,4.14-1.17v5.11c-1.35.45-2.74.86-4.14,1.22Z" transform="translate(-191.64)"/><path class="cls-26" d="M376.49,201.5c1.41-.19,2.8-.43,4.14-.71V206c-1.34.28-2.73.53-4.14.73Z" transform="translate(-191.64)"/><path class="cls-26" d="M376.49,151.73c1.41-.2,2.79-.43,4.14-.71v5.17c-1.34.28-2.73.53-4.14.73Z" transform="translate(-191.64)"/><path class="cls-26" d="M382.53,164.81c1.4-.34,2.79-.73,4.14-1.17v5.11c-1.35.45-2.74.86-4.14,1.22Z" transform="translate(-191.64)"/><path class="cls-26" d="M382.53,157.7c1.4-.34,2.79-.73,4.14-1.17v5.1q-2,.69-4.14,1.23Z" transform="translate(-191.64)"/><path class="cls-26" d="M382.53,150.59c1.4-.34,2.79-.73,4.14-1.17v5.1c-1.35.46-2.74.87-4.14,1.22Z" transform="translate(-191.64)"/><path class="cls-26" d="M388.56,198.53q2.18-.81,4.14-1.77v5a45,45,0,0,1-4.14,1.86Z" transform="translate(-191.64)"/><path class="cls-26" d="M388.56,163c1.44-.54,2.83-1.13,4.14-1.77v5a42.43,42.43,0,0,1-4.14,1.85Z" transform="translate(-191.64)"/><path class="cls-26" d="M388.56,170.09c1.44-.54,2.83-1.13,4.14-1.77v5a43.81,43.81,0,0,1-4.14,1.86Z" transform="translate(-191.64)"/><path class="cls-26" d="M388.56,191.42c1.44-.54,2.83-1.13,4.14-1.77v5a43.81,43.81,0,0,1-4.14,1.86Z" transform="translate(-191.64)"/><path class="cls-26" d="M388.56,184.31c1.44-.54,2.83-1.13,4.14-1.77v5a45,45,0,0,1-4.14,1.86Z" transform="translate(-191.64)"/><path class="cls-26" d="M388.56,177.2q2.18-.81,4.14-1.77v5a45,45,0,0,1-4.14,1.86Z" transform="translate(-191.64)"/><path class="cls-26" d="M382.53,143.48c1.4-.34,2.79-.73,4.14-1.17v5.1c-1.35.46-2.74.87-4.14,1.22Z" transform="translate(-191.64)"/><path class="cls-26" d="M388.56,141.65q2.18-.81,4.14-1.77v5a41.38,41.38,0,0,1-4.14,1.85Z" transform="translate(-191.64)"/><path class="cls-26" d="M388.56,148.76c1.44-.54,2.83-1.13,4.14-1.77v5a41.38,41.38,0,0,1-4.14,1.85Z" transform="translate(-191.64)"/><path class="cls-26" d="M388.56,155.87q2.18-.81,4.14-1.77v5a41.38,41.38,0,0,1-4.14,1.85Z" transform="translate(-191.64)"/><path class="cls-26" d="M356.47,213.64c-1.4-.23-2.79-.5-4.14-.82v-5.16c1.36.31,2.74.57,4.14.79Z" transform="translate(-191.64)"/><path class="cls-26" d="M344.39,203.16a39.75,39.75,0,0,1-4.14-2v-4.95a45.09,45.09,0,0,0,4.14,1.9Z" transform="translate(-191.64)"/><path class="cls-26" d="M362.51,214.33c-1.38-.09-2.76-.23-4.14-.41v-5.2c1.38.18,2.76.31,4.14.4Z" transform="translate(-191.64)"/><path class="cls-26" d="M350.43,212.34q-2.15-.59-4.14-1.32v-5.09c1.33.46,2.72.89,4.14,1.26Z" transform="translate(-191.64)"/><path class="cls-26" d="M388.56,205.64c1.44-.54,2.83-1.13,4.14-1.77v5a45,45,0,0,1-4.14,1.86Z" transform="translate(-191.64)"/><path class="cls-26" d="M344.39,210.28a40.84,40.84,0,0,1-4.14-2v-5a45.09,45.09,0,0,0,4.14,1.9Z" transform="translate(-191.64)"/><path class="cls-26" d="M376.49,208.61c1.41-.19,2.8-.43,4.14-.71v5.17c-1.34.28-2.73.53-4.14.73Z" transform="translate(-191.64)"/><path class="cls-26" d="M382.53,207.47c1.4-.34,2.79-.73,4.14-1.17v5.11c-1.35.45-2.74.86-4.14,1.22Z" transform="translate(-191.64)"/><path class="cls-26" d="M370.45,209.18c1.38-.07,2.77-.18,4.14-.33v5.2c-1.37.15-2.76.27-4.14.34Z" transform="translate(-191.64)"/><path class="cls-26" d="M367,214.48c-.85,0-1.7,0-2.54,0v-5.21c.84,0,1.69.05,2.54.05l1.6,0v5.21Z" transform="translate(-191.64)"/><path class="cls-26" d="M356.47,185.2c-1.4-.23-2.79-.5-4.14-.82v-5.16c1.36.31,2.74.57,4.14.79Z" transform="translate(-191.64)"/><path class="cls-26" d="M356.47,171c-1.4-.23-2.79-.5-4.14-.82V165c1.36.31,2.74.57,4.14.79Z" transform="translate(-191.64)"/><path class="cls-26" d="M356.47,178.09c-1.4-.23-2.78-.5-4.14-.82v-5.16c1.36.31,2.74.57,4.14.79Z" transform="translate(-191.64)"/><path class="cls-26" d="M367,171.81c-.85,0-1.7,0-2.54,0v-5.21c.84,0,1.69,0,2.54,0h1.6v5.21Z" transform="translate(-191.64)"/><path class="cls-26" d="M376.49,144.62c1.41-.2,2.8-.44,4.14-.71v5.17c-1.34.28-2.73.53-4.14.73Z" transform="translate(-191.64)"/><path class="cls-26" d="M362.51,171.67c-1.38-.1-2.77-.23-4.14-.41v-5.2c1.37.18,2.76.31,4.14.4Z" transform="translate(-191.64)"/><path class="cls-26" d="M356.47,192.31c-1.4-.23-2.79-.5-4.14-.82v-5.16c1.36.31,2.74.57,4.14.79Z" transform="translate(-191.64)"/><path class="cls-26" d="M370.45,195c1.38-.07,2.77-.18,4.14-.33v5.2c-1.37.15-2.76.27-4.14.34Z" transform="translate(-191.64)"/><path class="cls-26" d="M370.45,166.52c1.38-.07,2.77-.18,4.14-.33v5.2c-1.37.15-2.76.27-4.14.34Z" transform="translate(-191.64)"/><path class="cls-26" d="M367,200.26c-.85,0-1.7,0-2.54,0V195c.84,0,1.69,0,2.54,0h1.6v5.21Z" transform="translate(-191.64)"/><path class="cls-26" d="M356.47,199.42c-1.4-.23-2.78-.5-4.14-.82v-5.16c1.36.31,2.74.57,4.14.79Z" transform="translate(-191.64)"/><path class="cls-26" d="M362.51,200.11c-1.38-.1-2.77-.23-4.14-.41v-5.2c1.37.18,2.76.31,4.14.4Z" transform="translate(-191.64)"/><path class="cls-26" d="M367,186c-.85,0-1.7,0-2.54,0v-5.21c.84,0,1.69,0,2.54,0h1.6V186Z" transform="translate(-191.64)"/><path class="cls-26" d="M370.45,173.63c1.38-.07,2.77-.18,4.14-.33v5.2c-1.37.15-2.76.27-4.14.34Z" transform="translate(-191.64)"/><path class="cls-26" d="M367,178.92c-.85,0-1.7,0-2.54,0v-5.21c.84,0,1.69,0,2.54,0h1.6v5.21Z" transform="translate(-191.64)"/><path class="cls-26" d="M400.64,128a24.83,24.83,0,0,0,4.14-3.86v3.93a20.59,20.59,0,0,1-4.14,4.62Z" transform="translate(-191.64)"/><path class="cls-26" d="M362.51,178.78c-1.38-.1-2.76-.23-4.14-.41v-5.2c1.37.18,2.76.31,4.14.4Z" transform="translate(-191.64)"/><path class="cls-26" d="M370.45,187.85c1.38-.07,2.77-.18,4.14-.33v5.2c-1.37.15-2.76.27-4.14.34Z" transform="translate(-191.64)"/><path class="cls-26" d="M362.51,185.89c-1.38-.1-2.77-.23-4.14-.41v-5.2c1.38.18,2.76.31,4.14.4Z" transform="translate(-191.64)"/><path class="cls-26" d="M370.45,180.74c1.38-.07,2.77-.18,4.14-.33v5.2c-1.37.15-2.76.27-4.14.34Z" transform="translate(-191.64)"/><path class="cls-26" d="M367,193.15c-.85,0-1.7,0-2.54-.05v-5.21c.84,0,1.69,0,2.54,0h1.6v5.21Z" transform="translate(-191.64)"/><path class="cls-26" d="M350.43,205.23c-1.43-.39-2.82-.83-4.14-1.32v-5.09c1.33.46,2.72.89,4.14,1.26Z" transform="translate(-191.64)"/><path class="cls-26" d="M350.43,183.9c-1.43-.39-2.82-.84-4.14-1.32v-5.09c1.33.46,2.72.89,4.14,1.26Z" transform="translate(-191.64)"/><path class="cls-26" d="M350.43,198.12q-2.15-.59-4.14-1.32v-5.09c1.33.46,2.72.89,4.14,1.26Z" transform="translate(-191.64)"/><path class="cls-26" d="M350.43,191q-2.15-.58-4.14-1.32V184.6c1.33.46,2.72.89,4.14,1.26Z" transform="translate(-191.64)"/><path class="cls-26" d="M350.43,169.68c-1.43-.39-2.82-.84-4.14-1.32v-5.09c1.33.46,2.72.89,4.14,1.26Z" transform="translate(-191.64)"/><path class="cls-26" d="M350.43,176.79c-1.43-.39-2.81-.84-4.14-1.32v-5.09c1.33.46,2.72.89,4.14,1.26Z" transform="translate(-191.64)"/><path class="cls-26" d="M370.45,202.07c1.38-.07,2.77-.18,4.14-.33v5.2c-1.37.15-2.76.27-4.14.34Z" transform="translate(-191.64)"/><path class="cls-26" d="M367,207.37c-.85,0-1.7,0-2.54-.05v-5.21c.84,0,1.69,0,2.54,0h1.6v5.21Z" transform="translate(-191.64)"/><path class="cls-26" d="M362.51,207.22c-1.38-.09-2.77-.23-4.14-.41v-5.2c1.37.18,2.76.31,4.14.4Z" transform="translate(-191.64)"/><path class="cls-26" d="M356.47,206.53c-1.4-.23-2.79-.5-4.14-.82v-5.16c1.36.31,2.74.57,4.14.79Z" transform="translate(-191.64)"/><path class="cls-26" d="M350.43,162.57c-1.43-.39-2.81-.84-4.14-1.32v-5.09c1.33.46,2.72.89,4.14,1.26Z" transform="translate(-191.64)"/><path class="cls-26" d="M376.49,194.39c1.41-.2,2.8-.43,4.14-.71v5.17c-1.34.28-2.73.53-4.14.73Z" transform="translate(-191.64)"/><path class="cls-26" d="M376.49,166c1.41-.2,2.79-.43,4.14-.71v5.17c-1.34.28-2.73.53-4.14.73Z" transform="translate(-191.64)"/><path class="cls-26" d="M376.49,180.17c1.41-.2,2.8-.43,4.14-.71v5.17c-1.34.28-2.73.53-4.14.73Z" transform="translate(-191.64)"/><path class="cls-26" d="M376.49,173.06c1.41-.2,2.8-.43,4.14-.71v5.17c-1.34.28-2.73.53-4.14.73Z" transform="translate(-191.64)"/><path class="cls-26" d="M376.49,187.28c1.41-.2,2.8-.43,4.14-.71v5.17c-1.34.28-2.73.53-4.14.73Z" transform="translate(-191.64)"/><path class="cls-26" d="M362.51,164.56c-1.38-.1-2.77-.23-4.14-.41V159c1.37.18,2.76.31,4.14.4Z" transform="translate(-191.64)"/><path class="cls-26" d="M376.49,158.84c1.41-.2,2.8-.43,4.14-.71v5.17c-1.34.28-2.73.53-4.14.73Z" transform="translate(-191.64)"/><path class="cls-26" d="M356.47,163.87c-1.4-.23-2.78-.5-4.14-.82v-5.16c1.36.31,2.74.57,4.14.79Z" transform="translate(-191.64)"/><path class="cls-26" d="M367,164.7c-.85,0-1.7,0-2.54,0v-5.21c.84,0,1.69,0,2.54,0h1.6v5.21Z" transform="translate(-191.64)"/><path class="cls-26" d="M370.45,159.41c1.38-.07,2.77-.18,4.14-.33v5.2c-1.37.15-2.76.27-4.14.34Z" transform="translate(-191.64)"/><path class="cls-26" d="M362.51,193c-1.38-.1-2.77-.23-4.14-.41v-5.2c1.37.18,2.76.31,4.14.4Z" transform="translate(-191.64)"/><path class="cls-26" d="M332.32,202.91a18,18,0,0,1-4.14-5.49V194a23.22,23.22,0,0,0,4.14,4.31Z" transform="translate(-191.64)"/><path class="cls-26" d="M332.32,210a18.11,18.11,0,0,1-4.14-5.48v-3.42a23.22,23.22,0,0,0,4.14,4.31Z" transform="translate(-191.64)"/><path class="cls-26" d="M332.32,174.47a18,18,0,0,1-4.14-5.49v-3.41a23.22,23.22,0,0,0,4.14,4.31Z" transform="translate(-191.64)"/><path class="cls-26" d="M332.32,188.69a18,18,0,0,1-4.14-5.49v-3.41a23.22,23.22,0,0,0,4.14,4.31Z" transform="translate(-191.64)"/><path class="cls-26" d="M332.32,181.58a18,18,0,0,1-4.14-5.49v-3.41a23.22,23.22,0,0,0,4.14,4.31Z" transform="translate(-191.64)"/><path class="cls-26" d="M332.32,195.8a18,18,0,0,1-4.14-5.49V186.9a23.22,23.22,0,0,0,4.14,4.31Z" transform="translate(-191.64)"/><path class="cls-26" d="M332.32,217.13a18.11,18.11,0,0,1-4.14-5.48v-3.42a23.22,23.22,0,0,0,4.14,4.31Z" transform="translate(-191.64)"/><path class="cls-26" d="M350.43,226.56c-1.43-.39-2.82-.83-4.14-1.32v-5.09c1.33.47,2.72.89,4.14,1.26Z" transform="translate(-191.64)"/><path class="cls-26" d="M344.39,224.5a41.9,41.9,0,0,1-4.14-2v-5a45.09,45.09,0,0,0,4.14,1.9Z" transform="translate(-191.64)"/><path class="cls-26" d="M337.8,221.09a30.38,30.38,0,0,1-3.58-2.36V214a31.18,31.18,0,0,0,2.64,1.66l1.49.85v4.93Z" transform="translate(-191.64)"/><path class="cls-26" d="M332.32,146a18,18,0,0,1-4.14-5.49v-3.42a23,23,0,0,0,4.14,4.32Z" transform="translate(-191.64)"/><path class="cls-26" d="M337.8,135.77a31.69,31.69,0,0,1-3.58-2.36v-4.76c.83.58,1.71,1.13,2.64,1.66l1.49.85v4.93Z" transform="translate(-191.64)"/><path class="cls-26" d="M344.39,139.17a38.8,38.8,0,0,1-4.14-2v-4.95a45.06,45.06,0,0,0,4.14,1.89Z" transform="translate(-191.64)"/><path class="cls-26" d="M332.32,131.81a18,18,0,0,1-4.14-5.49V122.9a23,23,0,0,0,4.14,4.32Z" transform="translate(-191.64)"/><path class="cls-26" d="M356.47,142.54c-1.4-.23-2.79-.5-4.14-.82v-5.16c1.36.31,2.74.57,4.14.79Z" transform="translate(-191.64)"/><path class="cls-26" d="M332.32,167.36a18,18,0,0,1-4.14-5.49v-3.41a23.22,23.22,0,0,0,4.14,4.31Z" transform="translate(-191.64)"/><path class="cls-26" d="M350.43,141.24q-2.15-.6-4.14-1.32v-5.09c1.33.46,2.72.89,4.14,1.26Z" transform="translate(-191.64)"/><path class="cls-26" d="M332.32,153.14a18,18,0,0,1-4.14-5.49v-3.42a23,23,0,0,0,4.14,4.32Z" transform="translate(-191.64)"/><path class="cls-26" d="M332.32,160.25a18,18,0,0,1-4.14-5.49v-3.41a23.22,23.22,0,0,0,4.14,4.31Z" transform="translate(-191.64)"/><path class="cls-26" d="M356.47,227.86c-1.4-.23-2.79-.5-4.14-.82v-5.16c1.36.31,2.74.57,4.14.79Z" transform="translate(-191.64)"/><path class="cls-26" d="M332.32,138.92a18,18,0,0,1-4.14-5.49V130a23,23,0,0,0,4.14,4.32Z" transform="translate(-191.64)"/><path class="cls-26" d="M400.64,142.26a24.83,24.83,0,0,0,4.14-3.86v3.93a20.59,20.59,0,0,1-4.14,4.62Z" transform="translate(-191.64)"/><path class="cls-26" d="M400.64,163.59a24.83,24.83,0,0,0,4.14-3.86v3.93a20.59,20.59,0,0,1-4.14,4.62Z" transform="translate(-191.64)"/><path class="cls-26" d="M400.64,170.7a24.83,24.83,0,0,0,4.14-3.86v3.93a20.59,20.59,0,0,1-4.14,4.62Z" transform="translate(-191.64)"/><path class="cls-26" d="M400.64,177.81a24.83,24.83,0,0,0,4.14-3.86v3.93a20.59,20.59,0,0,1-4.14,4.62Z" transform="translate(-191.64)"/><path class="cls-26" d="M400.64,184.92a24.83,24.83,0,0,0,4.14-3.86V185a20.59,20.59,0,0,1-4.14,4.62Z" transform="translate(-191.64)"/><path class="cls-26" d="M400.64,156.48a24.83,24.83,0,0,0,4.14-3.86v3.93a20.59,20.59,0,0,1-4.14,4.62Z" transform="translate(-191.64)"/><path class="cls-26" d="M400.64,192a25.3,25.3,0,0,0,4.14-3.87v3.93a20.59,20.59,0,0,1-4.14,4.62Z" transform="translate(-191.64)"/><path class="cls-26" d="M400.64,135.15a24.83,24.83,0,0,0,4.14-3.86v3.93a20.59,20.59,0,0,1-4.14,4.62Z" transform="translate(-191.64)"/><path class="cls-26" d="M362.51,228.55c-1.38-.09-2.77-.23-4.14-.41v-5.2c1.37.18,2.76.31,4.14.4Z" transform="translate(-191.64)"/><path class="cls-26" d="M400.64,149.37a24.83,24.83,0,0,0,4.14-3.86v3.93a20.59,20.59,0,0,1-4.14,4.62Z" transform="translate(-191.64)"/><path class="cls-26" d="M362.51,143.23c-1.38-.1-2.77-.23-4.14-.41v-5.2c1.38.18,2.76.31,4.14.4Z" transform="translate(-191.64)"/><path class="cls-26" d="M382.53,221.69c1.4-.34,2.79-.73,4.14-1.17v5.11c-1.35.45-2.74.86-4.14,1.22Z" transform="translate(-191.64)"/><path class="cls-26" d="M370.45,223.4c1.38-.07,2.77-.18,4.14-.33v5.2c-1.37.15-2.76.27-4.14.34Z" transform="translate(-191.64)"/><path class="cls-26" d="M400.64,199.15a25.3,25.3,0,0,0,4.14-3.87v3.93a20.59,20.59,0,0,1-4.14,4.62Z" transform="translate(-191.64)"/><path class="cls-26" d="M367,228.7c-.85,0-1.7,0-2.54,0v-5.21c.84,0,1.69.05,2.54.05l1.6,0v5.21Z" transform="translate(-191.64)"/><path class="cls-26" d="M376.49,222.83c1.41-.19,2.8-.43,4.14-.71v5.17c-1.34.29-2.73.53-4.14.73Z" transform="translate(-191.64)"/><path class="cls-26" d="M400.64,206.26a25.3,25.3,0,0,0,4.14-3.87v3.93a20.59,20.59,0,0,1-4.14,4.62Z" transform="translate(-191.64)"/><path class="cls-26" d="M400.64,213.37a25.3,25.3,0,0,0,4.14-3.87v3.93a20.59,20.59,0,0,1-4.14,4.62Z" transform="translate(-191.64)"/><path class="cls-26" d="M388.56,219.86c1.44-.54,2.83-1.13,4.14-1.77v5a45,45,0,0,1-4.14,1.86Z" transform="translate(-191.64)"/><path class="cls-26" d="M394.6,217.11l.46-.25,2-1.16c.56-.33,1.12-.66,1.65-1v4.82c-.82.58-1.69,1.13-2.6,1.65l-1.54.88Z" transform="translate(-191.64)"/><path class="cls-26" d="M337.8,171.32a30.38,30.38,0,0,1-3.58-2.36V164.2a31.18,31.18,0,0,0,2.64,1.66l1.49.85v4.93Z" transform="translate(-191.64)"/><path class="cls-26" d="M337.8,214a30.38,30.38,0,0,1-3.58-2.36v-4.76a31.18,31.18,0,0,0,2.64,1.66l1.49.85v4.93Z" transform="translate(-191.64)"/><path class="cls-26" d="M337.8,206.87a30.38,30.38,0,0,1-3.58-2.36v-4.76a31.18,31.18,0,0,0,2.64,1.66l1.49.85v4.93Z" transform="translate(-191.64)"/><path class="cls-26" d="M337.8,199.76a30.38,30.38,0,0,1-3.58-2.36v-4.76a31.18,31.18,0,0,0,2.64,1.66l1.49.85v4.93Z" transform="translate(-191.64)"/><path class="cls-26" d="M337.8,192.65a30.38,30.38,0,0,1-3.58-2.36v-4.76a31.18,31.18,0,0,0,2.64,1.66l1.49.85V193Z" transform="translate(-191.64)"/><path class="cls-26" d="M337.8,185.54a30.38,30.38,0,0,1-3.58-2.36v-4.76a31.18,31.18,0,0,0,2.64,1.66l1.49.85v4.93Z" transform="translate(-191.64)"/><path class="cls-26" d="M362.51,221.44c-1.38-.09-2.77-.23-4.14-.41v-5.2c1.38.18,2.76.31,4.14.4Z" transform="translate(-191.64)"/><path class="cls-26" d="M356.47,220.75c-1.4-.23-2.78-.5-4.14-.82v-5.16c1.36.31,2.74.57,4.14.79Z" transform="translate(-191.64)"/><path class="cls-26" d="M337.8,178.43a31.69,31.69,0,0,1-3.58-2.36v-4.76a31.18,31.18,0,0,0,2.64,1.66l1.49.85v4.93Z" transform="translate(-191.64)"/><path class="cls-26" d="M344.39,217.39a41.9,41.9,0,0,1-4.14-2v-4.95a45.09,45.09,0,0,0,4.14,1.9Z" transform="translate(-191.64)"/><path class="cls-26" d="M350.43,219.45c-1.43-.39-2.82-.83-4.14-1.32V213c1.33.47,2.72.89,4.14,1.26Z" transform="translate(-191.64)"/><path class="cls-26" d="M337.8,164.21a30.38,30.38,0,0,1-3.58-2.36v-4.76a31.18,31.18,0,0,0,2.64,1.66l1.49.85v4.93Z" transform="translate(-191.64)"/><path class="cls-26" d="M350.43,148.35c-1.43-.4-2.82-.84-4.14-1.32v-5.09c1.33.46,2.72.89,4.14,1.26Z" transform="translate(-191.64)"/><path class="cls-26" d="M370.45,145.19c1.38-.07,2.77-.18,4.14-.33v5.2c-1.37.15-2.76.27-4.14.34Z" transform="translate(-191.64)"/><path class="cls-26" d="M367,150.48c-.85,0-1.7,0-2.54,0v-5.21c.84,0,1.69,0,2.54,0h1.6v5.21Z" transform="translate(-191.64)"/><path class="cls-26" d="M344.39,146.28a39.75,39.75,0,0,1-4.14-2v-4.95a45.06,45.06,0,0,0,4.14,1.89Z" transform="translate(-191.64)"/><path class="cls-26" d="M362.51,150.34c-1.38-.1-2.77-.23-4.14-.41v-5.2c1.38.18,2.76.31,4.14.4Z" transform="translate(-191.64)"/><path class="cls-26" d="M356.47,149.65c-1.4-.23-2.79-.5-4.14-.82v-5.16c1.36.31,2.74.57,4.14.79Z" transform="translate(-191.64)"/><path class="cls-26" d="M337.8,157.1a31.69,31.69,0,0,1-3.58-2.36V150a31.18,31.18,0,0,0,2.64,1.66l1.49.85v4.93Z" transform="translate(-191.64)"/><path class="cls-26" d="M367,221.59c-.85,0-1.7,0-2.54-.05v-5.21c.84,0,1.69,0,2.54,0l1.6,0v5.21Z" transform="translate(-191.64)"/><path class="cls-26" d="M337.8,142.88a31.69,31.69,0,0,1-3.58-2.36v-4.76c.83.58,1.71,1.13,2.64,1.66l1.49.85v4.93Z" transform="translate(-191.64)"/><path class="cls-26" d="M337.8,150a31.69,31.69,0,0,1-3.58-2.36v-4.76a31.18,31.18,0,0,0,2.64,1.66l1.49.85v4.93Z" transform="translate(-191.64)"/><path class="cls-26" d="M382.53,136.37c1.4-.34,2.79-.73,4.14-1.17v5.1c-1.35.46-2.74.87-4.14,1.22Z" transform="translate(-191.64)"/><path class="cls-26" d="M394.6,167.34l.46-.25,2-1.16c.56-.33,1.12-.66,1.65-1v4.82c-.82.58-1.69,1.13-2.6,1.65l-1.54.88Z" transform="translate(-191.64)"/><path class="cls-26" d="M394.6,146l.46-.25,2-1.16c.56-.33,1.12-.66,1.65-1v4.82c-.82.57-1.69,1.13-2.6,1.65l-1.54.88Z" transform="translate(-191.64)"/><path class="cls-26" d="M394.6,131.79l.46-.25,2-1.16c.56-.33,1.12-.66,1.65-1v4.82c-.82.57-1.69,1.13-2.6,1.65l-1.54.88Z" transform="translate(-191.64)"/><path class="cls-26" d="M394.6,160.23l.46-.25,2-1.16c.56-.33,1.12-.66,1.65-1v4.82c-.82.58-1.69,1.13-2.6,1.65l-1.54.88Z" transform="translate(-191.64)"/><path class="cls-26" d="M394.6,153.12l.46-.25,2-1.16c.56-.33,1.12-.66,1.65-1v4.82c-.82.58-1.69,1.13-2.6,1.65l-1.54.88Z" transform="translate(-191.64)"/><path class="cls-26" d="M394.6,138.9l.46-.25,2-1.16c.56-.33,1.12-.66,1.65-1v4.82c-.82.57-1.69,1.13-2.6,1.65l-1.54.88Z" transform="translate(-191.64)"/><path class="cls-26" d="M370.45,138.08c1.38-.07,2.77-.18,4.14-.33V143c-1.37.15-2.76.27-4.14.34Z" transform="translate(-191.64)"/><path class="cls-26" d="M388.56,134.53a44.37,44.37,0,0,0,4.14-1.76v5a41.38,41.38,0,0,1-4.14,1.85Z" transform="translate(-191.64)"/><path class="cls-26" d="M376.49,137.51c1.41-.2,2.8-.44,4.14-.71V142c-1.34.28-2.73.53-4.14.73Z" transform="translate(-191.64)"/><path class="cls-26" d="M367,143.37c-.85,0-1.7,0-2.54,0v-5.21c.84,0,1.69,0,2.54,0,.53,0,1.06,0,1.6,0v5.22Z" transform="translate(-191.64)"/><path class="cls-26" d="M394.6,210l.46-.25,2-1.16c.56-.33,1.12-.66,1.65-1v4.82c-.82.58-1.69,1.13-2.6,1.65l-1.54.88Z" transform="translate(-191.64)"/><path class="cls-26" d="M388.56,212.75c1.44-.54,2.83-1.13,4.14-1.77v5a45,45,0,0,1-4.14,1.86Z" transform="translate(-191.64)"/><path class="cls-26" d="M382.53,214.58c1.4-.34,2.79-.73,4.14-1.17v5.11c-1.35.45-2.74.86-4.14,1.22Z" transform="translate(-191.64)"/><path class="cls-26" d="M370.45,216.29c1.38-.07,2.77-.18,4.14-.33v5.2c-1.37.15-2.76.27-4.14.34Z" transform="translate(-191.64)"/><path class="cls-26" d="M394.6,174.45l.46-.25,2-1.16c.56-.33,1.12-.66,1.65-1v4.82c-.82.58-1.69,1.13-2.6,1.65l-1.54.88Z" transform="translate(-191.64)"/><path class="cls-26" d="M376.49,215.72c1.41-.19,2.8-.43,4.14-.71v5.17c-1.34.28-2.73.53-4.14.73Z" transform="translate(-191.64)"/><path class="cls-26" d="M394.6,202.89l.46-.25,2-1.16c.56-.33,1.12-.66,1.65-1v4.82c-.82.58-1.69,1.13-2.6,1.65l-1.54.88Z" transform="translate(-191.64)"/><path class="cls-26" d="M394.6,188.67l.46-.25,2-1.16c.56-.33,1.12-.66,1.65-1v4.82c-.82.58-1.69,1.13-2.6,1.65l-1.54.88Z" transform="translate(-191.64)"/><path class="cls-26" d="M394.6,181.56l.46-.25,2-1.16c.56-.33,1.12-.66,1.65-1V184c-.82.58-1.69,1.13-2.6,1.65l-1.54.88Z" transform="translate(-191.64)"/><path class="cls-26" d="M394.6,195.78l.46-.25,2-1.16c.56-.33,1.12-.66,1.65-1v4.82c-.82.58-1.69,1.13-2.6,1.65l-1.54.88Z" transform="translate(-191.64)"/><path class="cls-17" d="M394.21,92.27c-15.07-8.71-39.76-8.74-54.86-.07L337,93.58c-15.09,8.68-15.06,22.82.07,31.43l2.27,1.29c15.13,8.61,39.88,8.58,55-.06l2-1.16c15.11-8.65,15.14-22.85.06-31.56Z" transform="translate(-191.64)"/><path class="cls-22" d="M341.58,100.94l2-1.15c12.59-7.23,33.16-7.21,45.73,0l1.8,1c5.54,3.2,8.63,7.3,9.28,11.49,1.65-5.72-1.33-11.82-9-16.24l-1.8-1c-12.56-7.26-33.14-7.28-45.72,0l-2,1.15c-7,4-10.11,9.48-9.29,14.75C333.68,107.28,336.67,103.76,341.58,100.94Z" transform="translate(-191.64)"/><path class="cls-20" d="M342,122.38l1.9,1.08c12.61,7.18,33.23,7.15,45.83-.06l1.69-1c4.94-2.83,7.94-6.37,9-10.07-.65-4.19-3.74-8.29-9.28-11.49l-1.8-1c-12.57-7.26-33.14-7.28-45.73,0l-2,1.15c-4.91,2.82-7.9,6.34-9,10C333.26,115.13,336.37,119.21,342,122.38Z" transform="translate(-191.64)"/><path class="cls-16" d="M577.34,317c-19,11-50.21,11-69.27,0l-24-13.86c-19.05-11-19.05-29,0-40l24.4-14.09c19-11,50.2-10.95,69.23.1l23.72,13.78c19,11.05,19,29.11,0,40.13Z" transform="translate(-191.64)"/><polygon class="cls-27" points="407.98 190.11 407.82 190.02 407.82 190.2 407.98 190.11"/><polygon class="cls-27" points="294.33 190.11 294.49 190.2 294.49 190.02 294.33 190.11"/><polygon class="cls-27" points="407.82 255.3 407.82 190.2 351.16 222.94 294.49 190.2 294.49 255.3 294.61 255.3 294.33 255.46 351.16 288.29 407.98 255.46 407.71 255.3 407.82 255.3"/><polygon class="cls-27" points="407.82 189.95 407.71 189.95 407.82 190.02 407.82 189.95"/><polygon class="cls-27" points="294.49 189.95 294.49 190.02 294.61 189.95 294.49 189.95"/><polyline class="cls-27" points="294.61 189.95 294.49 190.02 294.49 190.2 351.16 222.94 407.82 190.2 407.82 190.02 407.71 189.95"/><polygon class="cls-28" points="407.98 110.87 407.82 110.78 407.82 110.96 407.98 110.87"/><polygon class="cls-28" points="294.33 110.87 294.49 110.96 294.49 110.78 294.33 110.87"/><polygon class="cls-28" points="407.82 176.06 407.82 110.96 351.16 143.7 294.49 110.96 294.49 176.06 294.61 176.06 294.33 176.22 351.16 209.05 407.98 176.22 407.71 176.06 407.82 176.06"/><polygon class="cls-28" points="407.82 110.71 407.71 110.71 407.82 110.78 407.82 110.71"/><polygon class="cls-28" points="294.49 110.71 294.49 110.78 294.61 110.71 294.49 110.71"/><polyline class="cls-28" points="294.61 110.71 294.49 110.78 294.49 110.96 351.16 143.7 407.82 110.96 407.82 110.78 407.71 110.71"/><polygon class="cls-29" points="294.33 110.87 351.16 78.35 407.98 110.87 351.16 143.7 294.33 110.87"/><polygon class="cls-30" points="384.94 139.42 389.45 136.81 389.45 146.22 384.94 148.82 384.94 139.42"/><polygon class="cls-30" points="361.94 152.71 366.45 150.1 366.45 159.5 361.94 162.11 361.94 152.71"/><polygon class="cls-30" points="377.27 143.85 381.78 141.24 381.78 150.64 377.27 153.25 377.27 143.85"/><polygon class="cls-30" points="392.61 148.04 397.12 145.43 397.12 154.83 392.61 157.44 392.61 148.04"/><polygon class="cls-30" points="369.61 148.28 374.12 145.67 374.12 155.07 369.61 157.68 369.61 148.28"/><polygon class="cls-30" points="392.61 134.99 397.12 132.38 397.12 141.78 392.61 144.39 392.61 134.99"/><polygon class="cls-30" points="361.94 165.75 366.45 163.15 366.45 172.55 361.94 175.16 361.94 165.75"/><polygon class="cls-30" points="400.27 130.56 404.78 127.95 404.78 137.35 400.27 139.96 400.27 130.56"/><polygon class="cls-30" points="377.27 156.9 381.78 154.29 381.78 163.69 377.27 166.3 377.27 156.9"/><polygon class="cls-30" points="369.61 161.33 374.12 158.72 374.12 168.12 369.61 170.73 369.61 161.33"/><polygon class="cls-30" points="384.94 152.47 389.45 149.86 389.45 159.26 384.94 161.87 384.94 152.47"/><polygon class="cls-30" points="354.27 157.14 358.78 154.53 358.78 163.93 354.27 166.54 354.27 157.14"/><polygon class="cls-30" points="392.61 161.09 397.12 158.48 397.12 167.88 392.61 170.49 392.61 161.09"/><polygon class="cls-30" points="384.94 165.51 389.45 162.91 389.45 172.31 384.94 174.92 384.94 165.51"/><polygon class="cls-30" points="400.27 156.66 404.78 154.05 404.78 163.45 400.27 166.06 400.27 156.66"/><polygon class="cls-30" points="400.27 143.61 404.78 141 404.78 150.4 400.27 153.01 400.27 143.61"/><polygon class="cls-30" points="377.27 169.94 381.78 167.34 381.78 176.74 377.27 179.35 377.27 169.94"/><polygon class="cls-30" points="361.94 178.8 366.45 176.2 366.45 185.6 361.94 188.21 361.94 178.8"/><polygon class="cls-30" points="354.27 170.19 358.78 167.58 358.78 176.98 354.27 179.59 354.27 170.19"/><polygon class="cls-30" points="354.27 183.23 358.78 180.63 358.78 190.03 354.27 192.64 354.27 183.23"/><polygon class="cls-30" points="369.61 174.37 374.12 171.77 374.12 181.17 369.61 183.78 369.61 174.37"/><polygon class="cls-30" points="328.12 155.34 328.12 145.83 332.63 148.44 332.63 157.94 328.12 155.34"/><polygon class="cls-30" points="335.78 159.77 335.78 150.26 340.29 152.87 340.29 162.37 335.78 159.77"/><polygon class="cls-30" points="320.45 150.91 320.45 141.4 324.96 144 324.96 153.51 320.45 150.91"/><polygon class="cls-30" points="312.78 146.48 312.78 136.97 317.29 139.58 317.29 149.08 312.78 146.48"/><polygon class="cls-30" points="343.45 164.2 343.45 154.69 347.96 157.29 347.96 166.8 343.45 164.2"/><polygon class="cls-30" points="305.12 142.05 305.12 132.54 309.63 135.15 309.63 144.65 305.12 142.05"/><polygon class="cls-30" points="305.12 155.2 305.12 145.69 309.63 148.3 309.63 157.81 305.12 155.2"/><polygon class="cls-30" points="312.78 159.63 312.78 150.12 317.29 152.73 317.29 162.24 312.78 159.63"/><polygon class="cls-30" points="320.45 164.06 320.45 154.55 324.96 157.16 324.96 166.67 320.45 164.06"/><polygon class="cls-30" points="328.12 168.49 328.12 158.98 332.63 161.59 332.63 171.1 328.12 168.49"/><polygon class="cls-30" points="335.78 172.92 335.78 163.41 340.29 166.02 340.29 175.53 335.78 172.92"/><polygon class="cls-30" points="343.45 190.5 343.45 181 347.96 183.6 347.96 193.11 343.45 190.5"/><polygon class="cls-30" points="335.78 186.07 335.78 176.57 340.29 179.17 340.29 188.68 335.78 186.07"/><polygon class="cls-30" points="328.12 181.65 328.12 172.14 332.63 174.74 332.63 184.25 328.12 181.65"/><polygon class="cls-30" points="343.45 177.35 343.45 167.84 347.96 170.45 347.96 179.96 343.45 177.35"/><polygon class="cls-30" points="297.45 163.93 297.45 154.42 301.96 157.02 301.96 166.53 297.45 163.93"/><polygon class="cls-30" points="297.45 137.62 297.45 128.11 301.96 130.72 301.96 140.22 297.45 137.62"/><polygon class="cls-30" points="297.45 150.77 297.45 141.26 301.96 143.87 301.96 153.38 297.45 150.77"/><polygon class="cls-30" points="305.12 168.36 305.12 158.85 309.63 161.45 309.63 170.96 305.12 168.36"/><polygon class="cls-30" points="312.78 172.78 312.78 163.28 317.29 165.88 317.29 175.39 312.78 172.78"/><polygon class="cls-30" points="320.45 177.22 320.45 167.71 324.96 170.31 324.96 179.82 320.45 177.22"/><polygon class="cls-31" points="399.24 112.48 402.26 110.73 351.19 81.51 300.13 110.73 303.15 112.48 351.19 84.98 399.24 112.48"/><polyline class="cls-31" points="399.24 112.48 351.19 140.24 303.15 112.48"/><path class="cls-31" d="M593.9,114.21" transform="translate(-191.64)"/><path class="cls-31" d="M542.83,143.71" transform="translate(-191.64)"/><path class="cls-31" d="M491.76,114.21" transform="translate(-191.64)"/><polygon class="cls-31" points="399.24 112.48 351.19 84.98 303.15 112.48 351.19 140.24 399.24 112.48"/><polygon class="cls-32" points="303.17 112.47 351.16 84.98 399.14 112.47 351.16 140.23 303.17 112.47"/><polygon class="cls-33" points="384.94 218.66 389.45 216.05 389.45 225.45 384.94 228.06 384.94 218.66"/><polygon class="cls-33" points="361.94 231.94 366.45 229.34 366.45 238.74 361.94 241.35 361.94 231.94"/><polygon class="cls-33" points="377.27 223.09 381.78 220.48 381.78 229.88 377.27 232.49 377.27 223.09"/><polygon class="cls-33" points="392.61 227.28 397.12 224.67 397.12 234.07 392.61 236.68 392.61 227.28"/><polygon class="cls-33" points="369.61 227.51 374.12 224.91 374.12 234.31 369.61 236.92 369.61 227.51"/><polygon class="cls-33" points="392.61 214.23 397.12 211.62 397.12 221.02 392.61 223.63 392.61 214.23"/><polygon class="cls-33" points="361.94 244.99 366.45 242.39 366.45 251.79 361.94 254.4 361.94 244.99"/><polygon class="cls-33" points="400.27 209.8 404.78 207.19 404.78 216.59 400.27 219.2 400.27 209.8"/><polygon class="cls-33" points="377.27 236.13 381.78 233.53 381.78 242.93 377.27 245.54 377.27 236.13"/><polygon class="cls-33" points="369.61 240.56 374.12 237.96 374.12 247.36 369.61 249.97 369.61 240.56"/><polygon class="cls-33" points="384.94 231.71 389.45 229.1 389.45 238.5 384.94 241.11 384.94 231.71"/><polygon class="cls-33" points="354.27 236.38 358.78 233.77 358.78 243.17 354.27 245.78 354.27 236.38"/><polygon class="cls-33" points="392.61 240.32 397.12 237.72 397.12 247.12 392.61 249.73 392.61 240.32"/><polygon class="cls-33" points="384.94 244.75 389.45 242.15 389.45 251.55 384.94 254.16 384.94 244.75"/><polygon class="cls-33" points="400.27 235.89 404.78 233.29 404.78 242.69 400.27 245.3 400.27 235.89"/><polygon class="cls-33" points="400.27 222.84 404.78 220.24 404.78 229.64 400.27 232.25 400.27 222.84"/><polygon class="cls-33" points="377.27 249.18 381.78 246.58 381.78 255.98 377.27 258.59 377.27 249.18"/><polygon class="cls-33" points="361.94 258.04 366.45 255.44 366.45 264.84 361.94 267.44 361.94 258.04"/><polygon class="cls-33" points="354.27 249.42 358.78 246.82 358.78 256.22 354.27 258.83 354.27 249.42"/><polygon class="cls-33" points="354.27 262.47 358.78 259.87 358.78 269.27 354.27 271.87 354.27 262.47"/><polygon class="cls-33" points="369.61 253.61 374.12 251.01 374.12 260.41 369.61 263.01 369.61 253.61"/><polygon class="cls-34" points="328.12 234.57 328.12 225.07 332.63 227.67 332.63 237.18 328.12 234.57"/><polygon class="cls-34" points="335.78 239 335.78 229.5 340.29 232.1 340.29 241.61 335.78 239"/><polygon class="cls-34" points="320.45 230.15 320.45 220.64 324.96 223.24 324.96 232.75 320.45 230.15"/><polygon class="cls-34" points="312.78 225.72 312.78 216.21 317.29 218.81 317.29 228.32 312.78 225.72"/><polygon class="cls-34" points="343.45 243.44 343.45 233.93 347.96 236.53 347.96 246.04 343.45 243.44"/><polygon class="cls-34" points="305.12 221.29 305.12 211.78 309.63 214.38 309.63 223.89 305.12 221.29"/><polygon class="cls-34" points="305.12 234.44 305.12 224.93 309.63 227.54 309.63 237.05 305.12 234.44"/><polygon class="cls-34" points="312.78 238.87 312.78 229.36 317.29 231.97 317.29 241.47 312.78 238.87"/><polygon class="cls-34" points="320.45 243.3 320.45 233.79 324.96 236.4 324.96 245.91 320.45 243.3"/><polygon class="cls-34" points="328.12 247.73 328.12 238.22 332.63 240.83 332.63 250.34 328.12 247.73"/><polygon class="cls-34" points="335.78 252.16 335.78 242.65 340.29 245.26 340.29 254.76 335.78 252.16"/><polygon class="cls-34" points="343.45 269.74 343.45 260.24 347.96 262.84 347.96 272.35 343.45 269.74"/><polygon class="cls-34" points="335.78 265.31 335.78 255.81 340.29 258.41 340.29 267.92 335.78 265.31"/><polygon class="cls-34" points="328.12 260.88 328.12 251.38 332.63 253.98 332.63 263.49 328.12 260.88"/><polygon class="cls-34" points="343.45 256.59 343.45 247.08 347.96 249.69 347.96 259.19 343.45 256.59"/><polygon class="cls-34" points="297.45 243.16 297.45 233.66 301.96 236.26 301.96 245.77 297.45 243.16"/><polygon class="cls-34" points="297.45 216.86 297.45 207.35 301.96 209.96 301.96 219.46 297.45 216.86"/><polygon class="cls-34" points="297.45 230.01 297.45 220.5 301.96 223.11 301.96 232.62 297.45 230.01"/><polygon class="cls-34" points="305.12 247.59 305.12 238.09 309.63 240.69 309.63 250.2 305.12 247.59"/><polygon class="cls-34" points="312.78 252.02 312.78 242.52 317.29 245.12 317.29 254.63 312.78 252.02"/><polygon class="cls-34" points="320.45 256.45 320.45 246.94 324.96 249.55 324.96 259.06 320.45 256.45"/><polyline class="cls-35" points="399.24 191.72 351.19 219.48 303.15 191.72"/><path class="cls-35" d="M593.9,193.44" transform="translate(-191.64)"/><path class="cls-35" d="M542.83,223" transform="translate(-191.64)"/><path class="cls-35" d="M491.76,193.44" transform="translate(-191.64)"/><path class="cls-35" d="M542.83,164.22" transform="translate(-191.64)"/><polyline class="cls-35" points="303.15 191.72 351.19 219.48 399.24 191.72"/><polyline class="cls-35" points="399.14 191.71 351.16 219.47 303.17 191.71"/><path class="cls-35" d="M542.79,164.22" transform="translate(-191.64)"/><polygon class="cls-18" points="402.14 189.9 402.14 186.77 396.11 183.31 393.38 184.89 390.36 186.63 399.18 191.68 402.14 189.9"/><polygon class="cls-36" points="402.14 186.77 402.14 189.9 402.26 189.97 399.24 191.72 399.18 191.68 351.32 219.63 303.18 191.7 303.15 191.72 300.13 189.97 300.17 189.94 300.17 186.77 294.33 190.11 351.16 222.94 407.98 190.11 402.14 186.77"/><polygon class="cls-36" points="399.18 191.68 399.24 191.72 402.26 189.97 402.14 189.9 402.14 189.95 399.18 191.68"/><polygon class="cls-36" points="303.15 191.72 303.18 191.7 300.17 189.95 300.17 189.94 300.13 189.97 303.15 191.72"/><polygon class="cls-37" points="312.18 186.55 312.18 186.55 300.17 179.59 300.02 190.11 351.32 219.63 351.32 209.21 312.18 186.55"/><polygon class="cls-36" points="303.18 191.7 300.17 189.94 300.17 189.95 303.18 191.7"/><polygon class="cls-38" points="402.29 189.8 402.3 189.79 402.29 189.78 402 179.68 395.99 183.16 351.32 209.21 351.32 219.63 402.11 189.9 402.3 190.11 402.29 189.8"/><polygon class="cls-36" points="402.14 189.95 402.14 189.9 399.18 191.68 402.14 189.95"/><path class="cls-35" d="M486.13,255.3" transform="translate(-191.64)"/><polygon class="cls-27" points="407.82 255.3 407.82 281.82 396.78 288.45 396.78 275.19 362.37 294.76 362.68 308.02 351 314.65 351.16 288.29 407.82 255.3"/><polyline class="cls-27" points="294.49 255.3 294.18 281.82 305.54 288.13 305.54 275.19 339.64 294.76 339.64 308.02 351 314.65 351.47 288.29 294.18 255.3"/><polygon class="cls-39" points="385.29 281.72 396.78 288.45 396.78 275.19 385.29 281.72"/><polygon class="cls-40" points="316.92 281.72 305.54 288.13 305.54 275.19 316.92 281.72"/><path class="cls-14" d="M487.26,305" transform="translate(-191.64)"/><path class="cls-16" d="M434.12,381.05c-19,11-50.21,11-69.26,0l-23.81-13.74c-19.05-11-19.05-29,0-40l24.2-14c19.05-11,50.21-11,69.23.09L458,327.13c19,11.05,19,29.11,0,40.13Z" transform="translate(-191.64)"/><polygon class="cls-17" points="207.94 262.47 151.66 230.27 207.94 197.44 264.21 229.95 207.94 262.47"/><polygon class="cls-18" points="264.21 234.96 264.06 234.87 264.06 235.05 264.21 234.96"/><polygon class="cls-19" points="264.06 346.17 264.06 235.05 208.1 267.38 208.1 378.61 208.1 267.38 207.94 267.47 151.66 235.27 155.99 232.74 151.66 230.27 151.93 230.11 151.51 230.11 151.51 346.41 151.93 346.41 151.66 346.57 207.94 378.77 263.94 346.41 264.06 346.41 264.06 346.35 264.21 346.25 264.06 346.17"/><polygon class="cls-20" points="207.94 267.47 208.1 267.38 208.1 262.38 207.94 262.47 151.66 230.27 151.66 235.27 207.94 267.47"/><polygon class="cls-21" points="263.94 230.11 259.89 232.45 208.1 262.38 208.1 267.38 264.06 235.05 264.06 234.87 264.06 230.11 263.94 230.11"/><polygon class="cls-22" points="254.55 231.2 256.71 229.95 207.94 201.77 159.17 230.22 161.33 231.46 207.94 204.28 254.55 231.2"/><polygon class="cls-18" points="254.55 231.2 207.94 204.28 161.33 231.46 207.94 258.13 254.55 231.2"/><polygon class="cls-23" points="239.86 262.32 245.09 259.31 245.09 264.14 239.86 267.16 239.86 262.32"/><polygon class="cls-23" points="239.86 297.32 245.09 294.3 245.09 299.13 239.86 302.15 239.86 297.32"/><polygon class="cls-23" points="225.66 270.53 230.88 267.51 230.88 272.34 225.66 275.36 225.66 270.53"/><polygon class="cls-23" points="218.56 274.63 223.78 271.61 223.78 276.45 218.56 279.46 218.56 274.63"/><polygon class="cls-23" points="218.56 281.63 223.78 278.61 223.78 283.44 218.56 286.46 218.56 281.63"/><polygon class="cls-23" points="239.86 283.32 245.09 280.3 245.09 285.13 239.86 288.15 239.86 283.32"/><polygon class="cls-23" points="239.86 290.32 245.09 287.3 245.09 292.13 239.86 295.15 239.86 290.32"/><polygon class="cls-23" points="218.56 288.63 223.78 285.61 223.78 290.44 218.56 293.46 218.56 288.63"/><polygon class="cls-23" points="239.86 269.32 245.09 266.3 245.09 271.13 239.86 274.15 239.86 269.32"/><polygon class="cls-23" points="239.86 276.32 245.09 273.3 245.09 278.13 239.86 281.15 239.86 276.32"/><polygon class="cls-23" points="232.76 266.43 237.99 263.41 237.99 268.24 232.76 271.26 232.76 266.43"/><polygon class="cls-23" points="218.56 344.62 223.78 341.6 223.78 346.43 218.56 349.45 218.56 344.62"/><polygon class="cls-23" points="225.66 340.51 230.88 337.49 230.88 342.33 225.66 345.35 225.66 340.51"/><polygon class="cls-23" points="218.56 337.62 223.78 334.6 223.78 339.43 218.56 342.45 218.56 337.62"/><polygon class="cls-23" points="232.76 336.41 237.99 333.39 237.99 338.22 232.76 341.24 232.76 336.41"/><polygon class="cls-23" points="239.86 332.31 245.09 329.29 245.09 334.12 239.86 337.14 239.86 332.31"/><polygon class="cls-23" points="218.56 295.63 223.78 292.61 223.78 297.44 218.56 300.46 218.56 295.63"/><polygon class="cls-23" points="218.56 302.63 223.78 299.61 223.78 304.44 218.56 307.46 218.56 302.63"/><polygon class="cls-23" points="218.56 309.63 223.78 306.61 223.78 311.44 218.56 314.46 218.56 309.63"/><polygon class="cls-23" points="218.56 330.62 223.78 327.6 223.78 332.43 218.56 335.45 218.56 330.62"/><polygon class="cls-23" points="218.56 316.62 223.78 313.6 223.78 318.44 218.56 321.45 218.56 316.62"/><polygon class="cls-23" points="218.56 323.62 223.78 320.6 223.78 325.43 218.56 328.45 218.56 323.62"/><polygon class="cls-23" points="225.66 277.53 230.88 274.51 230.88 279.34 225.66 282.36 225.66 277.53"/><polygon class="cls-23" points="225.66 284.53 230.88 281.51 230.88 286.34 225.66 289.36 225.66 284.53"/><polygon class="cls-23" points="239.86 304.31 245.09 301.3 245.09 306.13 239.86 309.15 239.86 304.31"/><polygon class="cls-23" points="246.96 328.2 252.19 325.19 252.19 330.02 246.96 333.04 246.96 328.2"/><polygon class="cls-23" points="232.76 294.42 237.99 291.4 237.99 296.23 232.76 299.25 232.76 294.42"/><polygon class="cls-23" points="232.76 273.43 237.99 270.41 237.99 275.24 232.76 278.26 232.76 273.43"/><polygon class="cls-23" points="232.76 287.42 237.99 284.4 237.99 289.24 232.76 292.25 232.76 287.42"/><polygon class="cls-23" points="232.76 322.41 237.99 319.39 237.99 324.23 232.76 327.25 232.76 322.41"/><polygon class="cls-23" points="254.06 247.12 259.29 244.1 259.29 248.93 254.06 251.95 254.06 247.12"/><polygon class="cls-23" points="232.76 308.42 237.99 305.4 237.99 310.23 232.76 313.25 232.76 308.42"/><polygon class="cls-23" points="232.76 315.42 237.99 312.4 237.99 317.23 232.76 320.25 232.76 315.42"/><polygon class="cls-23" points="232.76 301.42 237.99 298.4 237.99 303.23 232.76 306.25 232.76 301.42"/><polygon class="cls-23" points="232.76 280.42 237.99 277.4 237.99 282.24 232.76 285.26 232.76 280.42"/><polygon class="cls-23" points="225.66 333.51 230.88 330.5 230.88 335.33 225.66 338.35 225.66 333.51"/><polygon class="cls-23" points="225.66 291.52 230.88 288.51 230.88 293.34 225.66 296.36 225.66 291.52"/><polygon class="cls-23" points="239.86 318.31 245.09 315.29 245.09 320.12 239.86 323.14 239.86 318.31"/><polygon class="cls-23" points="225.66 326.52 230.88 323.5 230.88 328.33 225.66 331.35 225.66 326.52"/><polygon class="cls-23" points="239.86 311.31 245.09 308.29 245.09 313.13 239.86 316.14 239.86 311.31"/><polygon class="cls-23" points="232.76 329.41 237.99 326.39 237.99 331.23 232.76 334.24 232.76 329.41"/><polygon class="cls-23" points="225.66 298.52 230.88 295.5 230.88 300.34 225.66 303.36 225.66 298.52"/><polygon class="cls-23" points="225.66 305.52 230.88 302.5 230.88 307.33 225.66 310.35 225.66 305.52"/><polygon class="cls-23" points="225.66 312.52 230.88 309.5 230.88 314.33 225.66 317.35 225.66 312.52"/><polygon class="cls-23" points="225.66 319.52 230.88 316.5 230.88 321.33 225.66 324.35 225.66 319.52"/><polygon class="cls-23" points="239.86 325.31 245.09 322.29 245.09 327.12 239.86 330.14 239.86 325.31"/><polygon class="cls-23" points="225.66 347.51 230.88 344.49 230.88 349.32 225.66 352.34 225.66 347.51"/><polygon class="cls-23" points="232.76 343.41 237.99 340.39 237.99 345.22 232.76 348.24 232.76 343.41"/><polygon class="cls-23" points="254.06 324.1 259.29 321.08 259.29 325.91 254.06 328.93 254.06 324.1"/><polygon class="cls-23" points="254.06 331.1 259.29 328.08 259.29 332.91 254.06 335.93 254.06 331.1"/><polygon class="cls-23" points="246.96 335.2 252.19 332.18 252.19 337.01 246.96 340.03 246.96 335.2"/><polygon class="cls-23" points="239.86 339.31 245.09 336.29 245.09 341.12 239.86 344.14 239.86 339.31"/><polygon class="cls-23" points="218.56 351.62 223.78 348.6 223.78 353.43 218.56 356.45 218.56 351.62"/><polygon class="cls-23" points="211.46 327.73 216.68 324.7 216.68 329.54 211.46 332.56 211.46 327.73"/><polygon class="cls-23" points="211.46 334.72 216.68 331.7 216.68 336.54 211.46 339.55 211.46 334.72"/><polygon class="cls-23" points="211.46 348.72 216.68 345.7 216.68 350.53 211.46 353.55 211.46 348.72"/><polygon class="cls-23" points="246.96 321.21 252.19 318.19 252.19 323.02 246.96 326.04 246.96 321.21"/><polygon class="cls-23" points="211.46 341.72 216.68 338.7 216.68 343.53 211.46 346.55 211.46 341.72"/><polygon class="cls-23" points="254.06 275.11 259.29 272.09 259.29 276.93 254.06 279.94 254.06 275.11"/><polygon class="cls-23" points="254.06 261.12 259.29 258.1 259.29 262.93 254.06 265.95 254.06 261.12"/><polygon class="cls-23" points="254.06 268.12 259.29 265.1 259.29 269.93 254.06 272.95 254.06 268.12"/><polygon class="cls-23" points="254.06 317.1 259.29 314.08 259.29 318.92 254.06 321.94 254.06 317.1"/><polygon class="cls-23" points="254.06 254.12 259.29 251.1 259.29 255.93 254.06 258.95 254.06 254.12"/><polygon class="cls-23" points="254.06 303.11 259.29 300.09 259.29 304.92 254.06 307.94 254.06 303.11"/><polygon class="cls-23" points="254.06 282.11 259.29 279.09 259.29 283.92 254.06 286.94 254.06 282.11"/><polygon class="cls-23" points="254.06 310.11 259.29 307.09 259.29 311.92 254.06 314.94 254.06 310.11"/><polygon class="cls-23" points="254.06 296.11 259.29 293.09 259.29 297.92 254.06 300.94 254.06 296.11"/><polygon class="cls-23" points="254.06 289.11 259.29 286.09 259.29 290.92 254.06 293.94 254.06 289.11"/><polygon class="cls-23" points="211.46 355.72 216.68 352.7 216.68 357.53 211.46 360.55 211.46 355.72"/><polygon class="cls-23" points="246.96 265.22 252.19 262.2 252.19 267.03 246.96 270.05 246.96 265.22"/><polygon class="cls-23" points="246.96 272.22 252.19 269.2 252.19 274.03 246.96 277.05 246.96 272.22"/><polygon class="cls-23" points="246.96 258.22 252.19 255.2 252.19 260.03 246.96 263.05 246.96 258.22"/><polygon class="cls-23" points="246.96 279.22 252.19 276.2 252.19 281.03 246.96 284.05 246.96 279.22"/><polygon class="cls-23" points="246.96 251.22 252.19 248.2 252.19 253.04 246.96 256.06 246.96 251.22"/><polygon class="cls-23" points="246.96 307.21 252.19 304.19 252.19 309.02 246.96 312.04 246.96 307.21"/><polygon class="cls-23" points="239.86 255.33 245.09 252.31 245.09 257.14 239.86 260.16 239.86 255.33"/><polygon class="cls-23" points="246.96 314.21 252.19 311.19 252.19 316.02 246.96 319.04 246.96 314.21"/><polygon class="cls-23" points="246.96 286.21 252.19 283.19 252.19 288.03 246.96 291.05 246.96 286.21"/><polygon class="cls-23" points="246.96 300.21 252.19 297.19 252.19 302.02 246.96 305.04 246.96 300.21"/><polygon class="cls-23" points="246.96 293.21 252.19 290.19 252.19 295.02 246.96 298.05 246.96 293.21"/><polygon class="cls-23" points="211.46 271.74 216.68 268.72 216.68 273.55 211.46 276.57 211.46 271.74"/><polygon class="cls-23" points="211.46 285.74 216.68 282.71 216.68 287.55 211.46 290.57 211.46 285.74"/><polygon class="cls-23" points="211.46 299.73 216.68 296.71 216.68 301.54 211.46 304.56 211.46 299.73"/><polygon class="cls-23" points="211.46 292.73 216.68 289.71 216.68 294.55 211.46 297.56 211.46 292.73"/><polygon class="cls-23" points="211.46 313.73 216.68 310.71 216.68 315.54 211.46 318.56 211.46 313.73"/><polygon class="cls-23" points="232.76 259.43 237.99 256.41 237.99 261.24 232.76 264.26 232.76 259.43"/><polygon class="cls-23" points="211.46 306.73 216.68 303.71 216.68 308.54 211.46 311.56 211.46 306.73"/><polygon class="cls-23" points="225.66 263.53 230.88 260.51 230.88 265.35 225.66 268.36 225.66 263.53"/><polygon class="cls-23" points="218.56 267.63 223.78 264.62 223.78 269.45 218.56 272.47 218.56 267.63"/><polygon class="cls-23" points="211.46 278.74 216.68 275.72 216.68 280.55 211.46 283.57 211.46 278.74"/><polygon class="cls-23" points="211.46 320.73 216.68 317.71 216.68 322.54 211.46 325.56 211.46 320.73"/><polygon class="cls-20" points="177.75 266.68 177.75 261.91 183.43 265.16 183.43 269.92 177.75 266.68"/><polygon class="cls-20" points="162.66 264.97 162.66 260.2 168.33 263.45 168.33 268.21 162.66 264.97"/><polygon class="cls-20" points="170.21 262.36 170.21 257.59 175.88 260.84 175.88 265.61 170.21 262.36"/><polygon class="cls-20" points="162.66 258.04 162.66 253.28 168.33 256.52 168.33 261.29 162.66 258.04"/><polygon class="cls-20" points="185.3 284.85 185.3 280.08 190.97 283.33 190.97 288.1 185.3 284.85"/><polygon class="cls-20" points="185.3 298.7 185.3 293.94 190.97 297.18 190.97 301.95 185.3 298.7"/><polygon class="cls-20" points="185.3 271 185.3 266.23 190.97 269.48 190.97 274.24 185.3 271"/><polygon class="cls-20" points="185.3 291.78 185.3 287.01 190.97 290.26 190.97 295.02 185.3 291.78"/><polygon class="cls-20" points="185.3 277.92 185.3 273.16 190.97 276.4 190.97 281.17 185.3 277.92"/><polygon class="cls-20" points="162.66 271.89 162.66 267.13 168.33 270.37 168.33 275.14 162.66 271.89"/><polygon class="cls-20" points="162.66 285.75 162.66 280.98 168.33 284.23 168.33 288.99 162.66 285.75"/><polygon class="cls-20" points="170.21 331.62 170.21 326.86 175.88 330.1 175.88 334.87 170.21 331.62"/><polygon class="cls-20" points="162.66 327.3 162.66 322.54 168.33 325.78 168.33 330.55 162.66 327.3"/><polygon class="cls-20" points="177.75 335.94 177.75 331.18 183.43 334.42 183.43 339.19 177.75 335.94"/><polygon class="cls-20" points="162.66 320.38 162.66 315.61 168.33 318.86 168.33 323.62 162.66 320.38"/><polygon class="cls-20" points="185.3 340.26 185.3 335.49 190.97 338.74 190.97 343.5 185.3 340.26"/><polygon class="cls-20" points="162.66 299.6 162.66 294.83 168.33 298.08 168.33 302.84 162.66 299.6"/><polygon class="cls-20" points="185.3 305.63 185.3 300.86 190.97 304.11 190.97 308.87 185.3 305.63"/><polygon class="cls-20" points="162.66 292.67 162.66 287.91 168.33 291.15 168.33 295.92 162.66 292.67"/><polygon class="cls-20" points="162.66 278.82 162.66 274.05 168.33 277.3 168.33 282.06 162.66 278.82"/><polygon class="cls-20" points="162.66 306.52 162.66 301.76 168.33 305 168.33 309.77 162.66 306.52"/><polygon class="cls-20" points="162.66 313.45 162.66 308.68 168.33 311.93 168.33 316.69 162.66 313.45"/><polygon class="cls-20" points="170.21 283.14 170.21 278.37 175.88 281.62 175.88 286.38 170.21 283.14"/><polygon class="cls-20" points="177.75 287.46 177.75 282.69 183.43 285.94 183.43 290.7 177.75 287.46"/><polygon class="cls-20" points="170.21 276.21 170.21 271.45 175.88 274.69 175.88 279.46 170.21 276.21"/><polygon class="cls-20" points="170.21 269.29 170.21 264.52 175.88 267.77 175.88 272.53 170.21 269.29"/><polygon class="cls-20" points="177.75 294.38 177.75 289.62 183.43 292.86 183.43 297.63 177.75 294.38"/><polygon class="cls-20" points="177.75 273.6 177.75 268.84 183.43 272.08 183.43 276.85 177.75 273.6"/><polygon class="cls-20" points="177.75 280.53 177.75 275.77 183.43 279.01 183.43 283.78 177.75 280.53"/><polygon class="cls-20" points="200.4 272.71 200.4 267.94 206.07 271.19 206.07 275.95 200.4 272.71"/><polygon class="cls-20" points="177.75 301.31 177.75 296.54 183.43 299.79 183.43 304.56 177.75 301.31"/><polygon class="cls-20" points="177.75 322.09 177.75 317.32 183.43 320.57 183.43 325.33 177.75 322.09"/><polygon class="cls-20" points="177.75 308.24 177.75 303.47 183.43 306.72 183.43 311.48 177.75 308.24"/><polygon class="cls-20" points="177.75 315.16 177.75 310.4 183.43 313.64 183.43 318.41 177.75 315.16"/><polygon class="cls-20" points="170.21 310.84 170.21 306.08 175.88 309.32 175.88 314.09 170.21 310.84"/><polygon class="cls-20" points="177.75 329.01 177.75 324.25 183.43 327.49 183.43 332.26 177.75 329.01"/><polygon class="cls-20" points="192.85 344.58 192.85 339.81 198.52 343.06 198.52 347.82 192.85 344.58"/><polygon class="cls-20" points="185.3 333.33 185.3 328.57 190.97 331.81 190.97 336.58 185.3 333.33"/><polygon class="cls-20" points="185.3 326.41 185.3 321.64 190.97 324.89 190.97 329.65 185.3 326.41"/><polygon class="cls-20" points="185.3 319.48 185.3 314.71 190.97 317.96 190.97 322.73 185.3 319.48"/><polygon class="cls-20" points="170.21 324.69 170.21 319.93 175.88 323.18 175.88 327.94 170.21 324.69"/><polygon class="cls-20" points="170.21 296.99 170.21 292.23 175.88 295.47 175.88 300.24 170.21 296.99"/><polygon class="cls-20" points="170.21 317.77 170.21 313 175.88 316.25 175.88 321.01 170.21 317.77"/><polygon class="cls-20" points="170.21 290.06 170.21 285.3 175.88 288.55 175.88 293.31 170.21 290.06"/><polygon class="cls-20" points="185.3 312.55 185.3 307.79 190.97 311.04 190.97 315.8 185.3 312.55"/><polygon class="cls-20" points="170.21 303.92 170.21 299.15 175.88 302.4 175.88 307.16 170.21 303.92"/><polygon class="cls-20" points="162.66 251.11 162.66 246.35 168.33 249.59 168.33 254.36 162.66 251.11"/><polygon class="cls-20" points="185.3 347.19 185.3 342.42 190.97 345.67 190.97 350.43 185.3 347.19"/><polygon class="cls-20" points="177.75 342.87 177.75 338.1 183.43 341.35 183.43 346.11 177.75 342.87"/><polygon class="cls-20" points="200.4 341.97 200.4 337.21 206.07 340.45 206.07 345.22 200.4 341.97"/><polygon class="cls-20" points="200.4 348.9 200.4 344.13 206.07 347.38 206.07 352.14 200.4 348.9"/><polygon class="cls-20" points="200.4 355.82 200.4 351.06 206.07 354.3 206.07 359.07 200.4 355.82"/><polygon class="cls-20" points="192.85 351.5 192.85 346.74 198.52 349.99 198.52 354.75 192.85 351.5"/><polygon class="cls-20" points="155.11 322.98 155.11 318.22 160.78 321.46 160.78 326.23 155.11 322.98"/><polygon class="cls-20" points="155.11 316.06 155.11 311.29 160.78 314.54 160.78 319.3 155.11 316.06"/><polygon class="cls-20" points="155.11 309.13 155.11 304.37 160.78 307.61 160.78 312.38 155.11 309.13"/><polygon class="cls-20" points="155.11 329.91 155.11 325.14 160.78 328.39 160.78 333.15 155.11 329.91"/><polygon class="cls-20" points="170.21 338.55 170.21 333.78 175.88 337.03 175.88 341.79 170.21 338.55"/><polygon class="cls-20" points="162.66 334.23 162.66 329.46 168.33 332.71 168.33 337.47 162.66 334.23"/><polygon class="cls-20" points="200.4 286.56 200.4 281.8 206.07 285.04 206.07 289.81 200.4 286.56"/><polygon class="cls-20" points="200.4 293.49 200.4 288.72 206.07 291.97 206.07 296.73 200.4 293.49"/><polygon class="cls-20" points="200.4 279.64 200.4 274.87 206.07 278.12 206.07 282.88 200.4 279.64"/><polygon class="cls-20" points="200.4 300.41 200.4 295.65 206.07 298.89 206.07 303.66 200.4 300.41"/><polygon class="cls-20" points="200.4 307.34 200.4 302.57 206.07 305.82 206.07 310.59 200.4 307.34"/><polygon class="cls-20" points="200.4 328.12 200.4 323.35 206.07 326.6 206.07 331.37 200.4 328.12"/><polygon class="cls-20" points="200.4 335.05 200.4 330.28 206.07 333.53 206.07 338.29 200.4 335.05"/><polygon class="cls-20" points="200.4 321.19 200.4 316.43 206.07 319.67 206.07 324.44 200.4 321.19"/><polygon class="cls-20" points="200.4 314.27 200.4 309.5 206.07 312.75 206.07 317.51 200.4 314.27"/><polygon class="cls-20" points="192.85 309.95 192.85 305.18 198.52 308.43 198.52 313.19 192.85 309.95"/><polygon class="cls-20" points="185.3 264.07 185.3 259.31 190.97 262.55 190.97 267.32 185.3 264.07"/><polygon class="cls-20" points="192.85 289.17 192.85 284.4 198.52 287.65 198.52 292.41 192.85 289.17"/><polygon class="cls-20" points="192.85 268.39 192.85 263.63 198.52 266.87 198.52 271.64 192.85 268.39"/><polygon class="cls-20" points="192.85 296.1 192.85 291.33 198.52 294.58 198.52 299.34 192.85 296.1"/><polygon class="cls-20" points="192.85 275.32 192.85 270.55 198.52 273.8 198.52 278.56 192.85 275.32"/><polygon class="cls-20" points="192.85 282.24 192.85 277.48 198.52 280.72 198.52 285.49 192.85 282.24"/><polygon class="cls-20" points="192.85 323.8 192.85 319.04 198.52 322.28 198.52 327.05 192.85 323.8"/><polygon class="cls-20" points="192.85 303.02 192.85 298.26 198.52 301.5 198.52 306.27 192.85 303.02"/><polygon class="cls-20" points="192.85 330.73 192.85 325.96 198.52 329.21 198.52 333.97 192.85 330.73"/><polygon class="cls-20" points="192.85 316.87 192.85 312.11 198.52 315.35 198.52 320.12 192.85 316.87"/><polygon class="cls-20" points="192.85 337.65 192.85 332.89 198.52 336.13 198.52 340.9 192.85 337.65"/><polygon class="cls-20" points="155.11 253.72 155.11 248.96 160.78 252.2 160.78 256.97 155.11 253.72"/><polygon class="cls-20" points="155.11 281.43 155.11 276.66 160.78 279.91 160.78 284.67 155.11 281.43"/><polygon class="cls-20" points="177.75 259.75 177.75 254.99 183.43 258.23 183.43 263 177.75 259.75"/><polygon class="cls-20" points="155.11 295.28 155.11 290.51 160.78 293.76 160.78 298.52 155.11 295.28"/><polygon class="cls-20" points="155.11 267.57 155.11 262.81 160.78 266.05 160.78 270.82 155.11 267.57"/><polygon class="cls-20" points="155.11 288.35 155.11 283.59 160.78 286.83 160.78 291.6 155.11 288.35"/><polygon class="cls-20" points="155.11 274.5 155.11 269.73 160.78 272.98 160.78 277.75 155.11 274.5"/><polygon class="cls-20" points="155.11 246.79 155.11 242.03 160.78 245.28 160.78 250.04 155.11 246.79"/><polygon class="cls-20" points="170.21 255.43 170.21 250.67 175.88 253.91 175.88 258.68 170.21 255.43"/><polygon class="cls-20" points="155.11 260.65 155.11 255.88 160.78 259.13 160.78 263.89 155.11 260.65"/><polygon class="cls-20" points="155.11 302.2 155.11 297.44 160.78 300.69 160.78 305.45 155.11 302.2"/><path class="cls-35" d="M461.11,377.17" transform="translate(-191.64)"/><path class="cls-35" d="M459.07,404" transform="translate(-191.64)"/><polygon class="cls-41" points="275.18 397.2 269.69 395.85 268.26 392.62 274.63 392.75 275.18 397.2"/><polygon class="cls-41" points="304.77 379.82 299.28 378.46 297.85 375.23 304.22 375.36 304.77 379.82"/><polygon class="cls-42" points="265.6 377.17 243.59 364.58 287.55 339.23 309.5 351.83 265.6 377.17"/><path class="cls-35" d="M455.24,391.23" transform="translate(-191.64)"/><path class="cls-43" d="M466.1,385" transform="translate(-191.64)"/><path class="cls-35" d="M481.85,345.56" transform="translate(-191.64)"/><path class="cls-35" d="M437.88,370.92" transform="translate(-191.64)"/><path class="cls-35" d="M435.22,389.89" transform="translate(-191.64)"/><path class="cls-35" d="M457.24,402.89" transform="translate(-191.64)"/><polyline class="cls-41" points="243.71 364.53 240.13 377.36 234.81 382.31 234.81 394.7 256.7 407.34 256.7 394.95 262.02 390 265.6 377.17"/><path class="cls-35" d="M429.45,381.23" transform="translate(-191.64)"/><path class="cls-35" d="M429.45,391.49" transform="translate(-191.64)"/><path class="cls-35" d="M447.57,402" transform="translate(-191.64)"/><path class="cls-35" d="M447.57,391.7" transform="translate(-191.64)"/><path class="cls-35" d="M456.94,402.63" transform="translate(-191.64)"/><path class="cls-35" d="M426.44,394.7" transform="translate(-191.64)"/><path class="cls-35" d="M435.22,389.89" transform="translate(-191.64)"/><path class="cls-43" d="M457.8,377.68" transform="translate(-191.64)"/><line class="cls-35" x1="269.84" y1="394.49" x2="273.82" y2="397.2"/><line class="cls-35" x1="268.07" y1="405" x2="264.14" y2="402.2"/><circle class="cls-44" cx="267.62" cy="398.81" r="4.86"/><circle class="cls-45" cx="270.68" cy="400.91" r="4.86"/><circle class="cls-46" cx="270.68" cy="400.92" r="2.34"/><line class="cls-35" x1="299.32" y1="377.1" x2="303.3" y2="379.82"/><line class="cls-35" x1="297.54" y1="387.61" x2="293.62" y2="384.81"/><circle class="cls-44" cx="297.1" cy="381.42" r="4.86"/><circle class="cls-45" cx="300.16" cy="383.52" r="4.86"/><circle class="cls-46" cx="300.16" cy="383.52" r="2.34"/><path class="cls-35" d="M458.48,406.47" transform="translate(-191.64)"/><path class="cls-18" d="M457.14,402.1v-1.78A8.81,8.81,0,0,0,457.14,402.1Z" transform="translate(-191.64)"/><path class="cls-47" d="M457.19,402.49c0-.13,0-.26-.05-.39v.42Z" transform="translate(-191.64)"/><path class="cls-47" d="M501.13,351.83l-43.89,25.34-.09,23.15c.29-2.88,1.25-4.87,4.33-5.66,2.07-.29,3.33.21,5.34,2.54l20.25-11.85c-.53-3.78.31-6.84,4.15-7.82,2.06-.29,3.23,0,5.23,2.29l4.57-2.65Z" transform="translate(-191.64)"/><path class="cls-35" d="M457.24,377.17" transform="translate(-191.64)"/><path class="cls-35" d="M456.94,402.63" transform="translate(-191.64)"/><path class="cls-35" d="M448.34,407.34" transform="translate(-191.64)"/><polyline class="cls-47" points="256.7 394.95 256.7 407.34 265.5 402.52 265.6 377.17 262.02 390"/><path class="cls-47" d="M431.77,377.36" transform="translate(-191.64)"/><polyline class="cls-48" points="266.47 377.88 273.82 373.63 273.77 382.66 263.43 388.63"/><polygon class="cls-48" points="241.32 376.62 244.3 366.01 264.37 377.6 261.37 388.19 241.32 376.62"/><path class="cls-47" d="M448.34,407.34" transform="translate(-191.64)"/><path class="cls-47" d="M426.44,394.7" transform="translate(-191.64)"/><line class="cls-47" x1="234.81" y1="394.7" x2="234.81" y2="382.31"/><polygon class="cls-49" points="256.7 407.34 234.81 394.7 234.81 382.31 256.7 394.95 256.7 407.34"/><polygon class="cls-50" points="255.94 402.63 250.7 399.61 250.7 396.64 255.94 399.66 255.94 402.63"/><polygon class="cls-50" points="240.43 393.6 235.2 390.58 235.2 387.61 240.43 390.63 240.43 393.6"/><path class="cls-16" d="M572,466.62c-19,11-50.21,11-69.26,0l-24-13.86c-19.05-11-19.05-29,0-40l24.4-14.09c19.06-11,50.21-11,69.23.1L596,412.58c19,11.05,19,29.11,0,40.13Z" transform="translate(-191.64)"/><polygon class="cls-28" points="403.55 369.23 403.39 369.14 403.39 369.32 403.55 369.23"/><polygon class="cls-28" points="289.9 369.23 290.06 369.32 290.06 369.14 289.9 369.23"/><polygon class="cls-28" points="403.39 434.42 403.39 369.32 346.72 402.06 290.06 369.32 290.06 434.42 290.17 434.42 289.9 434.57 346.72 467.41 403.55 434.57 403.27 434.42 403.39 434.42"/><polygon class="cls-28" points="403.39 369.07 403.27 369.07 403.39 369.14 403.39 369.07"/><polygon class="cls-28" points="290.06 369.07 290.06 369.14 290.17 369.07 290.06 369.07"/><polyline class="cls-28" points="290.17 369.07 290.06 369.14 290.06 369.32 346.72 402.06 403.39 369.32 403.39 369.14 403.27 369.07"/><polygon class="cls-29" points="289.9 369.23 346.72 336.71 403.55 369.23 346.72 402.06 289.9 369.23"/><polygon class="cls-30" points="380.5 397.77 385.01 395.17 385.01 404.57 380.5 407.18 380.5 397.77"/><polygon class="cls-30" points="357.5 411.06 362.01 408.46 362.01 417.86 357.5 420.46 357.5 411.06"/><polygon class="cls-30" points="372.84 402.2 377.35 399.6 377.35 409 372.84 411.61 372.84 402.2"/><polygon class="cls-30" points="388.17 406.39 392.68 403.79 392.68 413.19 388.17 415.8 388.17 406.39"/><polygon class="cls-30" points="365.17 406.63 369.68 404.03 369.68 413.43 365.17 416.04 365.17 406.63"/><polygon class="cls-30" points="388.17 393.34 392.68 390.74 392.68 400.14 388.17 402.75 388.17 393.34"/><polygon class="cls-30" points="357.5 424.11 362.01 421.5 362.01 430.91 357.5 433.51 357.5 424.11"/><polygon class="cls-30" points="395.84 388.91 400.35 386.31 400.35 395.71 395.84 398.32 395.84 388.91"/><polygon class="cls-30" points="372.84 415.25 377.35 412.65 377.35 422.05 372.84 424.65 372.84 415.25"/><polygon class="cls-30" points="365.17 419.68 369.68 417.07 369.68 426.48 365.17 429.08 365.17 419.68"/><polygon class="cls-30" points="380.5 410.82 385.01 408.22 385.01 417.62 380.5 420.22 380.5 410.82"/><polygon class="cls-30" points="349.84 415.49 354.35 412.89 354.35 422.29 349.84 424.89 349.84 415.49"/><polygon class="cls-30" points="388.17 419.44 392.68 416.83 392.68 426.24 388.17 428.84 388.17 419.44"/><polygon class="cls-30" points="380.5 423.87 385.01 421.26 385.01 430.67 380.5 433.27 380.5 423.87"/><polygon class="cls-30" points="395.84 415.01 400.35 412.4 400.35 421.81 395.84 424.41 395.84 415.01"/><polygon class="cls-30" points="395.84 401.96 400.35 399.36 400.35 408.76 395.84 411.37 395.84 401.96"/><polygon class="cls-30" points="372.84 428.3 377.35 425.69 377.35 435.1 372.84 437.7 372.84 428.3"/><polygon class="cls-30" points="357.5 437.16 362.01 434.55 362.01 443.96 357.5 446.56 357.5 437.16"/><polygon class="cls-30" points="349.84 428.54 354.35 425.94 354.35 435.34 349.84 437.94 349.84 428.54"/><polygon class="cls-30" points="349.84 441.59 354.35 438.98 354.35 448.39 349.84 450.99 349.84 441.59"/><polygon class="cls-30" points="365.17 432.73 369.68 430.12 369.68 439.53 365.17 442.13 365.17 432.73"/><polygon class="cls-30" points="323.68 413.69 323.68 404.19 328.19 406.79 328.19 416.3 323.68 413.69"/><polygon class="cls-30" points="331.35 418.12 331.35 408.62 335.86 411.22 335.86 420.73 331.35 418.12"/><polygon class="cls-30" points="316.01 409.26 316.01 399.75 320.52 402.36 320.52 411.87 316.01 409.26"/><polygon class="cls-30" points="308.35 404.83 308.35 395.32 312.86 397.93 312.86 407.44 308.35 404.83"/><polygon class="cls-30" points="339.01 422.55 339.01 413.04 343.52 415.65 343.52 425.16 339.01 422.55"/><polygon class="cls-30" points="300.68 400.4 300.68 390.9 305.19 393.5 305.19 403.01 300.68 400.4"/><polygon class="cls-30" points="300.68 413.56 300.68 404.05 305.19 406.65 305.19 416.16 300.68 413.56"/><polygon class="cls-30" points="308.35 417.99 308.35 408.48 312.86 411.08 312.86 420.59 308.35 417.99"/><polygon class="cls-30" points="316.01 422.42 316.01 412.91 320.52 415.51 320.52 425.02 316.01 422.42"/><polygon class="cls-30" points="323.68 426.85 323.68 417.34 328.19 419.94 328.19 429.45 323.68 426.85"/><polygon class="cls-30" points="331.35 431.28 331.35 421.77 335.86 424.37 335.86 433.88 331.35 431.28"/><polygon class="cls-30" points="339.01 448.86 339.01 439.35 343.52 441.96 343.52 451.46 339.01 448.86"/><polygon class="cls-30" points="331.35 444.43 331.35 434.92 335.86 437.53 335.86 447.04 331.35 444.43"/><polygon class="cls-30" points="323.68 440 323.68 430.49 328.19 433.1 328.19 442.61 323.68 440"/><polygon class="cls-30" points="339.01 435.71 339.01 426.2 343.52 428.8 343.52 438.31 339.01 435.71"/><polygon class="cls-30" points="293.01 422.28 293.01 412.77 297.52 415.38 297.52 424.89 293.01 422.28"/><polygon class="cls-30" points="293.01 395.97 293.01 386.47 297.52 389.07 297.52 398.58 293.01 395.97"/><polygon class="cls-30" points="293.01 409.13 293.01 399.62 297.52 402.23 297.52 411.73 293.01 409.13"/><polygon class="cls-30" points="300.68 426.71 300.68 417.2 305.19 419.81 305.19 429.32 300.68 426.71"/><polygon class="cls-30" points="308.35 431.14 308.35 421.63 312.86 424.24 312.86 433.75 308.35 431.14"/><polygon class="cls-30" points="316.01 435.57 316.01 426.06 320.52 428.67 320.52 438.18 316.01 435.57"/><polygon class="cls-31" points="394.81 370.83 397.83 369.09 346.76 339.87 295.69 369.09 298.71 370.83 346.76 343.34 394.81 370.83"/><polyline class="cls-31" points="394.81 370.83 346.76 398.6 298.71 370.83"/><path class="cls-31" d="M589.46,372.56" transform="translate(-191.64)"/><path class="cls-31" d="M538.4,402.07" transform="translate(-191.64)"/><path class="cls-31" d="M487.33,372.56" transform="translate(-191.64)"/><polygon class="cls-31" points="394.81 370.83 346.76 343.34 298.71 370.83 346.76 398.6 394.81 370.83"/><polygon class="cls-32" points="298.74 370.83 346.72 343.34 394.71 370.83 346.72 398.58 298.74 370.83"/><polygon class="cls-51" points="214.18 377.22 214.18 380.96 223.8 386.52 223.79 382.8 214.18 377.22"/><polygon class="cls-52" points="223.79 382.8 214.18 377.22 223.74 371.7 233.42 377.24 223.79 382.8"/><polygon class="cls-53" points="223.79 382.8 223.8 386.52 233.42 380.98 233.42 377.24 223.79 382.8"/><polygon class="cls-54" points="223.78 379.09 220.57 377.24 220.57 362.4 223.78 364.25 223.78 379.09"/><polygon class="cls-54" points="223.78 364.25 227 362.4 227 377.24 223.78 379.09 223.78 364.25"/><polygon class="cls-55" points="223.78 364.25 233.42 358.69 233.42 340.14 223.78 345.65 223.78 364.25"/><polygon class="cls-56" points="223.78 364.25 223.78 345.65 214.15 340.14 214.16 358.68 223.78 364.25"/><polygon class="cls-52" points="223.78 345.65 214.15 340.14 223.78 334.58 233.42 340.14 223.78 345.65"/><polygon class="cls-51" points="402.17 287.22 402.17 290.97 411.8 296.52 411.78 292.8 402.17 287.22"/><polygon class="cls-52" points="411.78 292.8 402.17 287.22 411.73 281.7 421.42 287.24 411.78 292.8"/><polygon class="cls-53" points="411.78 292.8 411.8 296.52 421.42 290.98 421.42 287.24 411.78 292.8"/><polygon class="cls-54" points="411.78 289.1 408.57 287.24 408.57 272.4 411.78 274.26 411.78 289.1"/><polygon class="cls-54" points="411.78 274.26 414.99 272.4 414.99 287.24 411.78 289.1 411.78 274.26"/><polygon class="cls-55" points="411.78 274.26 421.42 268.69 421.42 250.15 411.78 255.65 411.78 274.26"/><polygon class="cls-56" points="411.78 274.26 411.78 255.65 402.14 250.15 402.16 268.68 411.78 274.26"/><polygon class="cls-52" points="411.78 255.65 402.14 250.15 411.78 244.58 421.42 250.15 411.78 255.65"/><polygon class="cls-51" points="232.51 153.47 232.51 157.21 242.13 162.77 242.12 159.05 232.51 153.47"/><polygon class="cls-52" points="242.12 159.05 232.51 153.47 242.07 147.95 251.75 153.49 242.12 159.05"/><polygon class="cls-53" points="242.12 159.05 242.13 162.77 251.75 157.23 251.75 153.49 242.12 159.05"/><polygon class="cls-54" points="242.12 155.34 238.91 153.49 238.91 138.65 242.12 140.5 242.12 155.34"/><polygon class="cls-54" points="242.12 140.5 245.33 138.65 245.33 153.49 242.12 155.34 242.12 140.5"/><polygon class="cls-55" points="242.12 140.5 251.75 134.94 251.75 116.39 242.12 121.89 242.12 140.5"/><polygon class="cls-56" points="242.12 140.5 242.12 121.89 232.48 116.39 232.5 134.93 242.12 140.5"/><polygon class="cls-52" points="242.12 121.89 232.48 116.39 242.12 110.83 251.75 116.39 242.12 121.89"/><polygon class="cls-51" points="354.74 313.86 354.74 317.61 364.37 323.16 364.35 319.44 354.74 313.86"/><polygon class="cls-52" points="364.35 319.44 354.74 313.86 364.3 308.34 373.99 313.88 364.35 319.44"/><polygon class="cls-53" points="364.35 319.44 364.37 323.16 373.99 317.62 373.99 313.88 364.35 319.44"/><polygon class="cls-54" points="364.35 315.74 361.14 313.88 361.14 299.04 364.35 300.9 364.35 315.74"/><polygon class="cls-54" points="364.35 300.9 367.56 299.04 367.56 313.88 364.35 315.74 364.35 300.9"/><polygon class="cls-55" points="364.35 300.9 373.99 295.33 373.99 276.79 364.35 282.29 364.35 300.9"/><polygon class="cls-56" points="364.35 300.9 364.35 282.29 354.71 276.79 354.73 295.32 364.35 300.9"/><polygon class="cls-52" points="364.35 282.29 354.71 276.79 364.35 271.22 373.99 276.79 364.35 282.29"/><polygon class="cls-51" points="59.37 212.29 59.37 216.03 69 221.59 68.99 217.87 59.37 212.29"/><polygon class="cls-52" points="68.99 217.87 59.37 212.29 68.94 206.77 78.62 212.31 68.99 217.87"/><polygon class="cls-53" points="68.99 217.87 69 221.59 78.62 216.05 78.62 212.31 68.99 217.87"/><polygon class="cls-54" points="68.98 214.16 65.77 212.31 65.77 197.47 68.98 199.32 68.98 214.16"/><polygon class="cls-54" points="68.98 199.32 72.19 197.47 72.19 212.31 68.98 214.16 68.98 199.32"/><polygon class="cls-55" points="68.98 199.32 78.62 193.76 78.62 175.21 68.98 180.72 68.98 199.32"/><polygon class="cls-56" points="68.98 199.32 68.98 180.72 59.34 175.21 59.36 193.75 68.98 199.32"/><polygon class="cls-52" points="68.98 180.72 59.34 175.21 68.98 169.65 78.62 175.21 68.98 180.72"/><polygon class="cls-51" points="83.88 198.14 83.88 201.89 93.5 207.44 93.49 203.72 83.88 198.14"/><polygon class="cls-52" points="93.49 203.72 83.88 198.14 93.44 192.62 103.12 198.16 93.49 203.72"/><polygon class="cls-53" points="93.49 203.72 93.5 207.44 103.12 201.9 103.12 198.16 93.49 203.72"/><polygon class="cls-54" points="93.48 200.01 90.27 198.16 90.27 183.32 93.48 185.18 93.48 200.01"/><polygon class="cls-54" points="93.48 185.18 96.7 183.32 96.7 198.16 93.48 200.01 93.48 185.18"/><polygon class="cls-55" points="93.48 185.18 103.12 179.61 103.12 161.06 93.48 166.57 93.48 185.18"/><polygon class="cls-56" points="93.48 185.18 93.48 166.57 83.85 161.06 83.87 179.6 93.48 185.18"/><polygon class="cls-52" points="93.48 166.57 83.85 161.06 93.48 155.5 103.12 161.06 93.48 166.57"/><polygon class="cls-51" points="422.51 416.47 422.51 420.22 432.13 425.77 432.12 422.05 422.51 416.47"/><polygon class="cls-52" points="432.12 422.05 422.51 416.47 432.07 410.95 441.75 416.49 432.12 422.05"/><polygon class="cls-53" points="432.12 422.05 432.13 425.77 441.75 420.23 441.75 416.49 432.12 422.05"/><polygon class="cls-54" points="432.12 418.34 428.9 416.49 428.9 401.65 432.12 403.5 432.12 418.34"/><polygon class="cls-54" points="432.12 403.5 435.33 401.65 435.33 416.49 432.12 418.34 432.12 403.5"/><polygon class="cls-55" points="432.12 403.5 441.75 397.94 441.75 379.39 432.12 384.9 432.12 403.5"/><polygon class="cls-56" points="432.12 403.5 432.12 384.9 422.48 379.39 422.5 397.93 432.12 403.5"/><polygon class="cls-52" points="432.12 384.9 422.48 379.39 432.12 373.83 441.75 379.39 432.12 384.9"/><polygon class="cls-51" points="447.01 402.32 447.01 406.07 456.63 411.63 456.62 407.9 447.01 402.32"/><polygon class="cls-52" points="456.62 407.9 447.01 402.32 456.57 396.81 466.26 402.34 456.62 407.9"/><polygon class="cls-53" points="456.62 407.9 456.63 411.63 466.26 406.08 466.26 402.34 456.62 407.9"/><polygon class="cls-54" points="456.62 404.2 453.41 402.34 453.41 387.5 456.62 389.36 456.62 404.2"/><polygon class="cls-54" points="456.62 389.36 459.83 387.5 459.83 402.34 456.62 404.2 456.62 389.36"/><polygon class="cls-55" points="456.62 389.36 466.26 383.8 466.26 365.25 456.62 370.75 456.62 389.36"/><polygon class="cls-56" points="456.62 389.36 456.62 370.75 446.98 365.25 447 383.78 456.62 389.36"/><polygon class="cls-52" points="456.62 370.75 446.98 365.25 456.62 359.68 466.26 365.25 456.62 370.75"/></g></svg>