<svg xmlns="http://www.w3.org/2000/svg" viewBox="0 0 436.36 914.97">
  <defs>
    <style>
      .cls-1 {
        fill: #fff;
        stroke: #000;
      }

      .cls-1, .cls-11 {
        stroke-miterlimit: 10;
      }

      .cls-2 {
        fill: #585347;
      }

      .cls-3 {
        fill: #817866;
      }

      .cls-4 {
        fill: #696454;
      }

      .cls-5 {
        fill: #81ad37;
      }

      .cls-6 {
        fill: #7c7363;
      }

      .cls-7 {
        fill: #756f5d;
      }

      .cls-8 {
        fill: #706b5a;
      }

      .cls-9 {
        fill: #6ca142;
      }

      .cls-10, .cls-11 {
        fill: none;
        stroke: #1daee0;
      }

      .cls-10 {
        stroke-linecap: round;
        stroke-linejoin: round;
        stroke-width: 22px;
      }

      .cls-11 {
        stroke-width: 10px;
      }

      .cls-12 {
        fill: #a8aaad;
      }

      .cls-13 {
        fill: #939397;
      }

      .cls-14 {
        fill: #c0c2c3;
      }

      .cls-15 {
        fill: #b8babc;
      }

      .cls-16 {
        fill: #9ea0a1;
      }

      .cls-17 {
        fill: #a7aaab;
      }

      .cls-18 {
        fill: #9ea0a2;
      }

      .cls-19 {
        fill: #b8bec0;
      }

      .cls-20 {
        fill: #c7c9c9;
      }

      .cls-21 {
        fill: #b2b4b5;
      }

      .cls-22 {
        fill: #c2c4c5;
      }

      .cls-23 {
        fill: #939498;
      }

      .cls-24 {
        fill: #c7c7c9;
      }

      .cls-25 {
        fill: #9ea1a3;
      }

      .cls-26 {
        fill: #bababe;
      }

      .cls-27 {
        fill: #4e4033;
      }

      .cls-28 {
        fill: #56463d;
      }

      .cls-29 {
        fill: #6c9549;
      }

      .cls-30 {
        fill: #486a38;
      }

      .cls-31 {
        fill: #739b4d;
      }

      .cls-32 {
        fill: #4d713c;
      }

      .cls-33 {
        fill: #6f9f43;
      }

      .cls-34 {
        fill: #527a2e;
      }
    </style>
  </defs>
  <g id="Layer_12" data-name="Layer 12">
    <g>
      <path class="cls-1" d="M226.81,310.36" transform="translate(-4.95 -1.81)"/>
      <path class="cls-1" d="M298.81,265.36" transform="translate(-4.95 -1.81)"/>
      <path class="cls-1" d="M335.31,292.86" transform="translate(-4.95 -1.81)"/>
      <polyline class="cls-2" points="40.36 162.85 87.51 365.73 127.98 395.77 130.36 179.28 103.28 167.65 40.36 162.85"/>
      <polyline class="cls-3" points="96.43 248.51 124.25 425.67 130.36 439.51 112.36 287.56 96.43 248.51"/>
      <polyline class="cls-4" points="124.25 425.67 96.43 248.51 76.36 225.2 112.36 418.01"/>
      <polyline class="cls-3" points="103.28 167.65 107.96 207.39 113.01 204.55 103.28 167.65"/>
      <polygon class="cls-5" points="328.36 329.13 220.36 352.01 184.36 287.56 112.36 287.56 96.43 248.51 76.36 225.2 113.01 204.55 103.28 167.65 40.36 162.85 40.21 121.19 111.15 80.41 151.01 78.38 151.01 73.53 221.05 59.32 291.1 101.22 362.85 99.35 399.8 162.52 400.36 205.67 436.36 264.09 379.45 275.48 328.36 329.13"/>
      <polygon class="cls-6" points="184.36 287.56 184.36 451.31 219.21 470.13 220.36 352.01 184.36 287.56"/>
      <polygon class="cls-7" points="219.21 470.13 273.79 459.03 328.36 329.13 220.36 352.01 219.21 470.13"/>
      <polygon class="cls-8" points="273.79 459.03 310.36 406.51 324.86 379.02 379.45 275.48 328.36 329.13 273.79 459.03"/>
      <polygon class="cls-3" points="369.39 363.06 324.86 379.02 379.45 275.48 436.36 264.09 369.39 363.06"/>
      <polygon class="cls-7" points="112.36 287.56 130.36 439.51 184.36 451.31 184.36 287.56 112.36 287.56"/>
      <path class="cls-7" d="M101.38,261.77" transform="translate(-4.95 -1.81)"/>
      <path class="cls-9" d="M156,75.33s26.94,24.36,55.72,34.84,9.56,57.52,31.56,75.64,59.94,21.37,82.07,38.35c31.2,23.93,45.95,66.93,45.95,66.93l-9.14,9.59-21.75-48.82L299.93,225.5l-43.6-8-32.17-40.46-23.94-56.75L156,94.43Z" transform="translate(-4.95 -1.81)"/>
      <path class="cls-10" d="M83.32,52.39s33.6-.63,67.3,37.76C165.41,107,211.45,119.32,212,138.39c2,73.38,41.65,76.65,88.23,90.28,41.3,12.08,54.23,79.53,54.23,79.53" transform="translate(-4.95 -1.81)"/>
      <line class="cls-11" x1="355.91" y1="298.3" x2="355.91" y2="914.97"/>
      <g>
        <polygon class="cls-12" points="340.35 332.25 340.35 316.28 323.41 313.02 311.15 316.28 313.56 335.01 340.35 332.25"/>
        <polygon class="cls-13" points="311.15 316.28 309.01 329.76 313.56 335.01 311.15 316.28"/>
        <polygon class="cls-14" points="340.35 316.28 340.35 307.71 348.91 300.01 344.63 286.71 337.01 291.96 313.56 296.41 302.71 303.51 302.71 307.71 319.51 307.36 323.41 313.02 340.35 316.28"/>
        <polygon class="cls-15" points="311.15 316.28 302.71 307.71 319.51 307.36 323.41 313.02 311.15 316.28"/>
        <polygon class="cls-13" points="302.71 307.71 302.71 324.02 309.01 329.76 311.15 316.28 302.71 307.71"/>
        <polygon class="cls-16" points="340.35 324.02 348.91 320.66 346.62 302.07 340.35 307.71 340.35 324.02"/>
        <polygon class="cls-17" points="348.91 320.66 352.32 313.02 348.91 300.01 346.62 302.07 348.91 320.66"/>
      </g>
      <polyline class="cls-18" points="363.19 298.08 362.76 294.46 352.18 288.38 352.23 295.06 359.35 298.67 360.84 299.06"/>
      <polygon class="cls-19" points="371.72 279.48 373.45 290.71 369.33 295.06 363.19 298.08 362.76 294.46 367.31 289.49 367.31 283.68 371.72 279.48"/>
      <polygon class="cls-20" points="358.36 280.75 352.18 288.38 359.65 293.29 362.76 294.46 367.31 289.49 367.31 283.68 371.72 279.48 358.36 280.75"/>
      <polygon class="cls-12" points="76.36 87.02 113.4 61.93 127.95 100.38 100.31 126.01 77.04 121.06 72.24 90.8 76.36 87.02"/>
      <polygon class="cls-16" points="100.31 126.01 95.43 74.11 76.36 87.02 73.73 114.58 77.04 121.06 100.31 126.01"/>
      <polygon class="cls-21" points="78.36 140.91 18 142.62 2.99 58.13 40.21 79.8 40.21 97.95 76.36 110.91 78.36 140.91"/>
      <polygon class="cls-22" points="76.36 110.91 76.36 87.02 113.4 61.93 59.96 26.83 2.99 58.13 40.21 79.8 40.21 97.95 76.36 110.91"/>
      <polyline class="cls-23" points="3.36 60.23 4.36 62.55 18 93.97 18 142.62 0 110.91"/>
      <g>
        <polygon class="cls-12" points="183.3 161.85 183.3 145.88 166.36 142.62 154.1 145.88 156.52 164.61 183.3 161.85"/>
        <polygon class="cls-13" points="154.1 145.88 151.97 159.36 156.52 164.61 154.1 145.88"/>
        <polygon class="cls-14" points="183.3 145.88 183.3 137.31 191.87 129.61 184.36 118.53 179.97 121.56 156.52 126.01 145.67 133.11 145.67 137.31 162.47 136.96 166.36 142.62 183.3 145.88"/>
        <polygon class="cls-15" points="154.1 145.88 145.67 137.31 162.47 136.96 166.36 142.62 154.1 145.88"/>
        <polygon class="cls-13" points="145.67 137.31 145.67 153.62 151.97 159.36 154.1 145.88 145.67 137.31"/>
        <polygon class="cls-16" points="183.3 153.62 191.87 150.26 189.57 131.67 183.3 137.31 183.3 153.62"/>
        <polygon class="cls-17" points="191.87 150.26 200.97 141.42 191.87 129.61 189.57 131.67 191.87 150.26"/>
      </g>
      <polygon class="cls-24" points="340.35 295.43 335.02 289.29 339.03 285.49 344.63 290.46 340.35 295.43"/>
      <polygon class="cls-25" points="340.35 295.43 340.35 298.88 335.02 295.43 335.02 289.29 340.35 295.43"/>
      <polyline class="cls-17" points="344.63 290.46 344.63 295.43 340.35 298.88 340.35 295.43 344.63 290.46"/>
      <polygon class="cls-26" points="344.63 290.46 340.35 295.43 340.35 298.88 344.25 295.1 344.63 290.46"/>
      <path class="cls-10" d="M220.29,232.21" transform="translate(-4.95 -1.81)"/>
      <g>
        <polygon class="cls-27" points="300.87 115.83 296.59 113.36 296.59 93.62 300.87 96.09 300.87 115.83"/>
        <polygon class="cls-28" points="300.87 96.09 305.14 93.62 305.14 113.36 300.87 115.83 300.87 96.09"/>
        <polygon class="cls-29" points="300.08 104.72 324.86 93.19 311.52 76.14 300.08 84.31 300.08 104.72"/>
        <polygon class="cls-30" points="300.08 104.72 300.08 84.31 290.46 76.14 276.88 94.82 300.08 104.72"/>
        <polygon class="cls-31" points="302.76 86.02 319.08 76.59 309.75 60.62 302.76 65.6 302.76 86.02"/>
        <polygon class="cls-32" points="302.76 86.02 302.76 65.6 296.89 60.62 286.48 76.58 302.76 86.02"/>
        <polygon class="cls-33" points="301.77 70.05 314.18 60.62 301.79 45.22 301.77 49.64 301.77 70.05"/>
        <polygon class="cls-34" points="301.77 70.05 301.77 49.64 301.79 45.22 291.83 60.62 301.77 70.05"/>
      </g>
      <g>
        <polygon class="cls-27" points="262.36 108.83 258.08 106.36 258.08 86.62 262.36 89.09 262.36 108.83"/>
        <polygon class="cls-28" points="262.36 89.09 266.63 86.62 266.63 106.36 262.36 108.83 262.36 89.09"/>
        <polygon class="cls-29" points="261.56 97.73 286.35 86.2 273 69.14 261.56 77.31 261.56 97.73"/>
        <polygon class="cls-30" points="261.56 97.73 261.56 77.31 251.95 69.14 238.36 87.82 261.56 97.73"/>
        <polygon class="cls-31" points="264.25 79.02 280.57 69.6 271.23 53.62 264.25 58.61 264.25 79.02"/>
        <polygon class="cls-32" points="264.25 79.02 264.25 58.61 258.38 53.62 247.97 69.58 264.25 79.02"/>
        <polygon class="cls-33" points="263.26 63.06 275.67 53.62 263.27 38.22 263.26 42.65 263.26 63.06"/>
        <polygon class="cls-34" points="263.26 63.06 263.26 42.65 263.27 38.22 253.32 53.62 263.26 63.06"/>
      </g>
      <g>
        <polygon class="cls-27" points="279.26 125.82 274.99 123.36 274.99 103.61 279.26 106.08 279.26 125.82"/>
        <polygon class="cls-28" points="279.26 106.08 283.54 103.61 283.54 123.36 279.26 125.82 279.26 106.08"/>
        <polygon class="cls-29" points="278.47 114.72 303.25 103.19 289.91 86.13 278.47 94.31 278.47 114.72"/>
        <polygon class="cls-30" points="278.47 114.72 278.47 94.31 268.86 86.13 255.27 104.81 278.47 114.72"/>
        <polygon class="cls-31" points="281.16 96.01 297.48 86.59 288.14 70.61 281.16 75.6 281.16 96.01"/>
        <polygon class="cls-32" points="281.16 96.01 281.16 75.6 275.29 70.61 264.87 86.57 281.16 96.01"/>
        <polygon class="cls-33" points="280.17 80.05 292.57 70.61 280.18 55.21 280.17 59.64 280.17 80.05"/>
        <polygon class="cls-34" points="280.17 80.05 280.17 59.64 280.18 55.21 270.23 70.61 280.17 80.05"/>
      </g>
      <g>
        <polygon class="cls-27" points="70.17 70.61 65.9 68.14 65.9 48.4 70.17 50.87 70.17 70.61"/>
        <polygon class="cls-28" points="70.17 50.87 74.45 48.4 74.45 68.14 70.17 70.61 70.17 50.87"/>
        <polygon class="cls-29" points="69.38 59.51 94.17 47.98 80.82 30.92 69.38 39.09 69.38 59.51"/>
        <polygon class="cls-30" points="69.38 59.51 69.38 39.09 59.77 30.92 46.18 49.6 69.38 59.51"/>
        <polygon class="cls-31" points="72.07 40.8 88.39 31.38 79.05 15.4 72.07 20.39 72.07 40.8"/>
        <polygon class="cls-32" points="72.07 40.8 72.07 20.39 66.2 15.4 55.79 31.36 72.07 40.8"/>
        <polygon class="cls-33" points="71.08 24.84 83.48 15.4 71.09 0 71.08 4.43 71.08 24.84"/>
        <polygon class="cls-34" points="71.08 24.84 71.08 4.43 71.09 0 61.14 15.4 71.08 24.84"/>
      </g>
      <g>
        <polygon class="cls-27" points="128.18 135.36 123.91 132.9 123.91 113.15 128.18 115.62 128.18 135.36"/>
        <polygon class="cls-28" points="128.18 115.62 132.46 113.15 132.46 132.9 128.18 135.36 128.18 115.62"/>
        <polygon class="cls-29" points="127.39 124.26 152.17 112.73 138.83 95.67 127.39 103.85 127.39 124.26"/>
        <polygon class="cls-30" points="127.39 124.26 127.39 103.85 117.78 95.67 104.19 114.35 127.39 124.26"/>
        <polygon class="cls-31" points="130.08 105.55 146.4 96.13 137.06 80.15 130.08 85.14 130.08 105.55"/>
        <polygon class="cls-32" points="130.08 105.55 130.08 85.14 124.21 80.15 113.79 96.11 130.08 105.55"/>
        <polygon class="cls-33" points="129.09 89.59 141.49 80.15 129.1 64.75 129.09 69.18 129.09 89.59"/>
        <polygon class="cls-34" points="129.09 89.59 129.09 69.18 129.1 64.75 119.14 80.15 129.09 89.59"/>
      </g>
      <g>
        <polygon class="cls-27" points="105.77 148.46 101.49 145.99 101.49 126.25 105.77 128.72 105.77 148.46"/>
        <polygon class="cls-28" points="105.77 128.72 110.04 126.25 110.04 145.99 105.77 148.46 105.77 128.72"/>
        <polygon class="cls-29" points="104.98 137.35 129.76 125.82 116.42 108.77 104.98 116.94 104.98 137.35"/>
        <polygon class="cls-30" points="104.98 137.35 104.98 116.94 95.36 108.77 81.78 127.45 104.98 137.35"/>
        <polygon class="cls-31" points="107.66 118.65 123.98 109.23 114.64 93.25 107.66 98.24 107.66 118.65"/>
        <polygon class="cls-32" points="107.66 118.65 107.66 98.24 101.79 93.25 91.38 109.21 107.66 118.65"/>
        <polygon class="cls-33" points="106.67 102.69 119.08 93.25 106.69 77.85 106.67 82.27 106.67 102.69"/>
        <polygon class="cls-34" points="106.67 102.69 106.67 82.27 106.69 77.85 96.73 93.25 106.67 102.69"/>
      </g>
      <g>
        <polygon class="cls-27" points="40.21 70.61 35.93 68.14 35.93 48.4 40.21 50.87 40.21 70.61"/>
        <polygon class="cls-28" points="40.21 50.87 44.48 48.4 44.48 68.14 40.21 70.61 40.21 50.87"/>
        <polygon class="cls-29" points="39.42 59.51 64.2 47.98 50.86 30.92 39.42 39.1 39.42 59.51"/>
        <polygon class="cls-30" points="39.42 59.51 39.42 39.1 29.8 30.92 16.21 49.6 39.42 59.51"/>
        <polygon class="cls-31" points="42.1 40.8 58.42 31.38 49.08 15.4 42.1 20.39 42.1 40.8"/>
        <polygon class="cls-32" points="42.1 40.8 42.1 20.39 36.23 15.4 25.82 31.36 42.1 40.8"/>
        <polygon class="cls-33" points="41.11 24.84 53.52 15.4 41.13 0 41.11 4.43 41.11 24.84"/>
        <polygon class="cls-34" points="41.11 24.84 41.11 4.43 41.13 0 31.17 15.4 41.11 24.84"/>
      </g>
      <g>
        <polygon class="cls-27" points="324.86 105.92 320.58 103.45 320.58 83.71 324.86 86.18 324.86 105.92"/>
        <polygon class="cls-28" points="324.86 86.18 329.13 83.71 329.13 103.45 324.86 105.92 324.86 86.18"/>
        <polygon class="cls-29" points="324.07 94.81 348.85 83.28 335.51 66.23 324.07 74.4 324.07 94.81"/>
        <polygon class="cls-30" points="324.07 94.81 324.07 74.4 314.45 66.23 300.87 84.91 324.07 94.81"/>
        <polygon class="cls-31" points="326.76 76.11 343.07 66.69 333.74 50.71 326.76 55.69 326.76 76.11"/>
        <polygon class="cls-32" points="326.76 76.11 326.76 55.69 320.89 50.71 310.47 66.67 326.76 76.11"/>
        <polygon class="cls-33" points="325.76 60.14 338.17 50.71 325.78 35.31 325.76 39.73 325.76 60.14"/>
        <polygon class="cls-34" points="325.76 60.14 325.76 39.73 325.78 35.31 315.82 50.71 325.76 60.14"/>
      </g>
      <g>
        <polygon class="cls-27" points="352.14 118.31 347.86 115.84 347.86 96.1 352.14 98.57 352.14 118.31"/>
        <polygon class="cls-28" points="352.14 98.57 356.41 96.1 356.41 115.84 352.14 118.31 352.14 98.57"/>
        <polygon class="cls-29" points="351.35 107.21 376.13 95.68 362.79 78.62 351.35 86.8 351.35 107.21"/>
        <polygon class="cls-30" points="351.35 107.21 351.35 86.8 341.73 78.62 328.15 97.3 351.35 107.21"/>
        <polygon class="cls-31" points="354.04 88.5 370.35 79.08 361.02 63.1 354.04 68.09 354.04 88.5"/>
        <polygon class="cls-32" points="354.04 88.5 354.04 68.09 348.17 63.1 337.75 79.06 354.04 88.5"/>
        <polygon class="cls-33" points="353.04 72.54 365.45 63.1 353.06 47.7 353.04 52.13 353.04 72.54"/>
        <polygon class="cls-34" points="353.04 72.54 353.04 52.13 353.06 47.7 343.1 63.1 353.04 72.54"/>
      </g>
      <g>
        <polygon class="cls-27" points="319.72 127.72 315.96 125.55 315.96 108.18 319.72 110.35 319.72 127.72"/>
        <polygon class="cls-28" points="319.72 110.35 323.48 108.18 323.48 125.55 319.72 127.72 319.72 110.35"/>
        <polygon class="cls-29" points="319.03 117.95 340.83 107.81 329.09 92.81 319.03 100 319.03 117.95"/>
        <polygon class="cls-30" points="319.03 117.95 319.03 100 310.57 92.81 298.62 109.24 319.03 117.95"/>
        <polygon class="cls-31" points="321.39 101.5 335.74 93.21 327.53 79.16 321.39 83.54 321.39 101.5"/>
        <polygon class="cls-32" points="321.39 101.5 321.39 83.54 316.23 79.16 307.07 93.19 321.39 101.5"/>
        <polygon class="cls-33" points="320.52 87.46 331.43 79.16 320.53 65.61 320.52 69.5 320.52 87.46"/>
        <polygon class="cls-34" points="320.52 87.46 320.52 69.5 320.53 65.61 311.77 79.16 320.52 87.46"/>
      </g>
    </g>
  </g>
</svg>
